<svg width="74" height="74" viewBox="0 0 74 74" fill="none" xmlns="http://www.w3.org/2000/svg">
<path d="M55.5525 7.84602C51.1615 12.2373 44.0418 12.2373 39.6504 7.84602M7.84598 55.5524C12.2373 51.1614 12.2373 44.0418 7.84598 39.6504M66.1542 18.4474C61.7628 22.8387 61.7628 29.9583 66.1542 34.3497M18.4475 66.1542C22.8387 61.7628 29.9584 61.7628 34.3497 66.1542M5.19564 42.3007L42.3008 5.19564C45.2281 2.26812 49.9748 2.26812 52.9021 5.19564L68.8045 21.0978C71.7319 24.0253 71.7319 28.7718 68.8045 31.6994L31.6994 68.8045C28.7718 71.7318 24.0253 71.7318 21.0978 68.8045L5.19564 52.9021C2.26812 49.9748 2.26812 45.2284 5.19564 42.3007ZM42.3008 31.6994C45.2281 34.6267 45.2281 39.3734 42.3008 42.3007C39.3731 45.2284 34.6267 45.2284 31.6994 42.3007C28.7718 39.3734 28.7718 34.6267 31.6994 31.6994C34.6267 28.7718 39.3731 28.7718 42.3008 31.6994Z" stroke="white" stroke-opacity="0.2" stroke-width="5" stroke-linecap="round"/>
</svg>
