<svg width="74" height="74" viewBox="0 0 74 74" fill="none" xmlns="http://www.w3.org/2000/svg">
<path d="M28.7858 26.4792C28.7858 27.6413 27.8531 28.5833 26.7025 28.5833C25.5519 28.5833 24.6191 27.6413 24.6191 26.4792C24.6191 25.3171 25.5519 24.375 26.7025 24.375C27.8531 24.375 28.7858 25.3171 28.7858 26.4792Z" stroke="white" stroke-opacity="0.3" stroke-width="5" stroke-linecap="round"/>
<path d="M49.6188 47.5207C49.6188 48.6826 48.6859 49.6248 47.5355 49.6248C46.3851 49.6248 45.4521 48.6826 45.4521 47.5207C45.4521 46.3587 46.3851 45.4165 47.5355 45.4165C48.6859 45.4165 49.6188 46.3587 49.6188 47.5207Z" stroke="white" stroke-opacity="0.3" stroke-width="5" stroke-linecap="round"/>
<path d="M41.5287 4.57255C42.3937 4.01023 42.8262 3.72907 43.177 3.54589C47.6103 1.23088 53.0503 3.34384 54.8053 8.06244C54.9441 8.43576 55.0787 8.93718 55.3478 9.93999C55.472 10.403 55.5341 10.6345 55.6037 10.8475C56.4445 13.4279 58.4666 15.4397 61.0337 16.25C61.2457 16.3168 61.4757 16.3761 61.9362 16.4946L62.5612 16.6554C64.7237 17.2122 65.8049 17.4906 66.5945 17.8862C70.1841 19.684 71.9987 23.8073 70.9149 27.7031C70.6766 28.5602 70.1566 29.5574 69.117 31.5518L68.8166 32.1283C68.5953 32.5525 68.4845 32.765 68.3916 32.9687C67.267 35.436 67.3907 38.3002 68.7241 40.6598C68.8341 40.8543 68.9624 41.0563 69.2195 41.4594C69.7762 42.3331 70.0545 42.7699 70.2362 43.1242C72.5282 47.6019 70.4362 53.0963 65.7641 54.8689C65.3945 55.009 64.8982 55.1449 63.9053 55.4168C63.447 55.5422 63.2174 55.6049 63.0066 55.6752C60.452 56.5244 58.4599 58.5667 57.6578 61.1595C57.5916 61.3737 57.5328 61.606 57.4157 62.071L57.2562 62.7018C56.7049 64.8864 56.4295 65.9784 56.0378 66.7759C54.2578 70.4014 50.1753 72.2341 46.3182 71.1395C45.4695 70.8988 44.482 70.3736 42.5074 69.3232L41.937 69.0198C41.5166 68.7963 41.3066 68.6848 41.1049 68.591C38.6616 67.4551 35.8257 67.5801 33.4899 68.9264C33.297 69.0379 33.0974 69.1675 32.6978 69.4272C31.8328 69.9894 31.4003 70.2705 31.0495 70.454C26.6164 72.769 21.1763 70.656 19.4212 65.9372C19.2824 65.5639 19.1478 65.0627 18.8787 64.0599C18.7544 63.5965 18.6924 63.3651 18.6229 63.1521C17.7822 60.572 15.7599 58.56 13.1927 57.7499C12.9809 57.683 12.7507 57.6236 12.2905 57.505L11.6657 57.3442C9.50307 56.7874 8.42178 56.5093 7.63207 56.1137C4.04262 54.3159 2.22799 50.1926 3.31166 46.2965C3.55007 45.4397 4.06999 44.4423 5.10978 42.448L5.4102 41.8714C5.63149 41.4472 5.74211 41.2347 5.83495 41.031C6.95957 38.5637 6.83582 35.6995 5.50266 33.3399C5.39261 33.1454 5.26411 32.9434 5.00703 32.5403C4.45028 31.6666 4.17191 31.2298 3.99057 30.8755C1.69849 26.3979 3.79053 20.9035 8.46241 19.1309C8.83203 18.9906 9.32849 18.8547 10.3214 18.5829C10.7798 18.4574 11.009 18.3947 11.2199 18.3246C13.7747 17.4754 15.7667 15.433 16.5689 12.8401C16.6351 12.6261 16.6937 12.3937 16.8111 11.9288L16.9703 11.2977C17.5216 9.11351 17.7972 8.02141 18.1889 7.2238C19.9689 3.59849 24.0513 1.76568 27.9086 2.86018C28.7572 3.10098 29.7445 3.6261 31.7191 4.67629L32.2899 4.97971C32.7099 5.20321 32.9203 5.31494 33.122 5.4087C35.5649 6.54458 38.4007 6.41959 40.737 5.07313C40.9295 4.96195 41.1295 4.83216 41.5287 4.57255Z" stroke="white" stroke-opacity="0.3" stroke-width="5" stroke-linecap="round"/>
<path d="M26.7021 47.5207L47.5355 26.479" stroke="white" stroke-opacity="0.3" stroke-width="5" stroke-linecap="round"/>
</svg>
