<svg width="40" height="40" viewBox="0 0 40 40" fill="none" xmlns="http://www.w3.org/2000/svg">
<rect width="40" height="40" rx="5" fill="currentColor"/>
<path d="M27.2925 13.4438C29.6495 16.9338 30.8135 20.8703 30.3783 25.4021C30.3765 25.4213 30.3666 25.4389 30.351 25.4505C28.5661 26.7704 26.8368 27.5714 25.1317 28.1026C25.1185 28.1067 25.1043 28.1064 25.0911 28.102C25.078 28.0975 25.0666 28.089 25.0584 28.0777C24.6645 27.5257 24.3066 26.9438 23.9931 26.3327C23.9751 26.2967 23.9915 26.2533 24.0285 26.2392C24.597 26.0235 25.1375 25.765 25.6574 25.4589C25.6984 25.4347 25.701 25.3756 25.6631 25.3472C25.5528 25.2647 25.4435 25.178 25.3389 25.0914C25.3193 25.0753 25.293 25.0722 25.2708 25.0829C21.8954 26.6527 18.1978 26.6527 14.7825 25.0829C14.7604 25.073 14.734 25.0764 14.715 25.0921C14.6106 25.1788 14.5011 25.2647 14.3918 25.3472C14.3539 25.3756 14.3571 25.4347 14.3983 25.4589C14.9182 25.7592 15.4587 26.0235 16.0264 26.2402C16.0632 26.2544 16.0806 26.2967 16.0624 26.3327C15.7556 26.9446 15.3977 27.5265 14.9965 28.0784C14.979 28.1008 14.9503 28.111 14.9232 28.1026C13.2262 27.5714 11.4969 26.7704 9.71203 25.4505C9.69716 25.4389 9.68647 25.4205 9.6849 25.4014C9.32125 21.4814 10.0624 17.5123 12.7679 13.443C12.7744 13.4323 12.7843 13.4239 12.7958 13.4189C14.127 12.8036 15.5532 12.3509 17.0438 12.0924C17.0709 12.0882 17.098 12.1008 17.1121 12.125C17.2963 12.4534 17.5068 12.8745 17.6492 13.2187C19.2205 12.977 20.8162 12.977 22.4203 13.2187C22.5627 12.8819 22.7659 12.4534 22.9493 12.125C22.9558 12.113 22.966 12.1034 22.9782 12.0975C22.9905 12.0917 23.0043 12.0899 23.0177 12.0924C24.5091 12.3517 25.9352 12.8044 27.2654 13.4189C27.2771 13.4239 27.2868 13.4323 27.2925 13.4438ZM18.448 20.8971C18.4645 19.7382 17.6255 18.7793 16.5724 18.7793C15.5279 18.7793 14.697 19.7298 14.697 20.8971C14.697 22.0641 15.5443 23.0146 16.5724 23.0146C17.6172 23.0146 18.448 22.0641 18.448 20.8971ZM25.3824 20.8971C25.3989 19.7382 24.5599 18.7793 23.5071 18.7793C22.4623 18.7793 21.6314 19.7298 21.6314 20.8971C21.6314 22.0641 22.4787 23.0146 23.5071 23.0146C24.5599 23.0146 25.3824 22.0641 25.3824 20.8971Z" fill="white"/>
</svg>
