<svg width="11" height="14" viewBox="0 0 11 14" fill="none" xmlns="http://www.w3.org/2000/svg">
<path d="M7.73231 12.5116C8.19807 11.8641 8.10659 9.54591 7.38564 8.1172C7.14253 7.6353 6.48487 7.86372 6.25749 8.35329C5.59432 9.78141 3.90344 11.4593 2.81812 12.1125M1.01038 9.06506C1.10391 11.0303 3.06574 13 5.60114 13C8.13656 13 10.1919 11.0325 10.1919 9.06506C10.1919 7.27118 9.53595 7.26154 8.55222 5.78593C7.91561 4.83106 8.37757 3.05233 8.78281 1.91583C8.95221 1.44097 8.58048 0.918996 8.08468 1.01054C5.12272 1.55743 3.7017 3.33308 3.79695 6.46072C3.80784 6.8186 3.28657 7.00335 3.09659 6.69996L2.55212 5.83028C2.29461 5.419 1.7001 5.42526 1.51559 5.87408C1.14996 6.76345 0.951001 7.81735 1.01038 9.06506Z" stroke="currentColor" stroke-width="1.5" stroke-linecap="round"/>
</svg>
