<svg width="40" height="40" viewBox="0 0 40 40" fill="none" xmlns="http://www.w3.org/2000/svg">
<rect width="40" height="40" rx="5" fill="currentColor"/>
<path fill-rule="evenodd" clip-rule="evenodd" d="M31.7602 20.2729C31.7602 19.422 31.6839 18.6038 31.5421 17.8184H20.2402V22.4602H26.6984C26.4202 23.9602 25.5748 25.2311 24.3039 26.082V29.0929H28.1821C30.4511 27.0038 31.7602 23.9274 31.7602 20.2729Z" fill="#4285F4"/>
<path fill-rule="evenodd" clip-rule="evenodd" d="M20.2402 31.9998C23.4802 31.9998 26.1966 30.9252 28.1821 29.0925L24.3039 26.0816C23.2293 26.8016 21.8548 27.2271 20.2402 27.2271C17.1148 27.2271 14.4693 25.1161 13.5257 22.2798H9.5166V25.3889C11.4911 29.3107 15.5493 31.9998 20.2402 31.9998Z" fill="#34A853"/>
<path fill-rule="evenodd" clip-rule="evenodd" d="M13.5257 22.2799C13.2857 21.5599 13.1493 20.7908 13.1493 19.9999C13.1493 19.209 13.2857 18.4399 13.5257 17.7199V14.6108H9.5166C8.70387 16.2308 8.24023 18.0636 8.24023 19.9999C8.24023 21.9363 8.70387 23.769 9.5166 25.389L13.5257 22.2799Z" fill="#FBBC05"/>
<path fill-rule="evenodd" clip-rule="evenodd" d="M20.2402 12.7727C22.0021 12.7727 23.5839 13.3782 24.8275 14.5673L28.2693 11.1255C26.1911 9.18909 23.4748 8 20.2402 8C15.5493 8 11.4911 10.6891 9.5166 14.6109L13.5257 17.72C14.4693 14.8836 17.1148 12.7727 20.2402 12.7727Z" fill="#EA4335"/>
</svg>
