<svg width="20" height="20" viewBox="0 0 20 20" fill="none" xmlns="http://www.w3.org/2000/svg">
<g clip-path="url(#clip0_3466_1976)">
<path d="M17.2555 7.47699C17.4092 7.47699 17.5338 7.35241 17.5338 7.19866V4.50996C17.5338 3.96024 17.1053 3.5077 16.5582 3.47976C13.2574 3.31168 11.4833 1.96177 10.7196 1.17208C10.5252 0.971054 10.2637 0.860352 9.98323 0.860352C9.70274 0.860352 9.44122 0.971054 9.24691 1.17205C8.48316 1.96173 6.70907 3.31165 3.40816 3.47976C2.86114 3.5077 2.43262 3.9602 2.43262 4.50996V12.2699C2.43262 14.5048 3.63505 16.5874 5.57076 17.705L8.7196 19.5227C9.10938 19.7478 9.54625 19.8604 9.98327 19.8604C10.4202 19.8604 10.8572 19.7478 11.2469 19.5227L14.3958 17.7051C16.3314 16.5874 17.5339 14.5048 17.5339 12.27V8.49762C17.5339 8.34387 17.4093 8.21929 17.2555 8.21929C17.1018 8.21929 16.9772 8.34387 16.9772 8.49762V12.27C16.9772 14.3066 15.8814 16.2045 14.1174 17.223L10.9685 19.0407C10.3608 19.3917 9.6057 19.3917 8.99793 19.0406L5.84906 17.223C4.0851 16.2045 2.98928 14.3066 2.98928 12.27V4.50996C2.98928 4.25687 3.18575 4.04852 3.43651 4.03572C6.9281 3.85792 8.82629 2.4077 9.64708 1.55904C9.73559 1.46749 9.85497 1.41705 9.98323 1.41705C10.1115 1.41705 10.2309 1.46749 10.3194 1.55908C11.1401 2.4077 13.0383 3.85792 16.5299 4.03572C16.7807 4.04856 16.9772 4.25687 16.9772 4.50996V7.19866C16.9772 7.35241 17.1018 7.47699 17.2555 7.47699Z" fill="currentcolor"/>
<path d="M4.21046 8.21901C4.05675 8.21901 3.93213 8.34359 3.93213 8.49734V12.2697C3.93213 13.9704 4.84718 15.5555 6.32022 16.4063L9.46921 18.224C9.62552 18.3141 9.80321 18.3618 9.98308 18.3618C10.163 18.3618 10.3406 18.3141 10.4971 18.2239L13.646 16.4062C15.119 15.5555 16.0341 13.9704 16.0341 12.2697V5.53551C16.0341 5.20692 15.7889 4.92848 15.4639 4.88784C12.9675 4.57385 11.3252 3.62544 10.3868 2.88485C10.1491 2.69785 9.81709 2.69785 9.57909 2.88511C8.641 3.62544 6.99873 4.57385 4.50256 4.88781C4.1774 4.92848 3.93217 5.20692 3.93217 5.53551V7.19845C3.93217 7.3522 4.05678 7.47678 4.2105 7.47678C4.36421 7.47678 4.48883 7.3522 4.48883 7.19845V5.53551C4.48883 5.48704 4.52438 5.44607 4.57181 5.44017C7.19527 5.11018 8.93036 4.10625 9.92363 3.32239C9.95859 3.29481 10.0075 3.29478 10.0423 3.32213C11.0359 4.10625 12.7709 5.11021 15.3947 5.4402C15.4418 5.44607 15.4774 5.48708 15.4774 5.53551V12.2697C15.4774 13.7722 14.669 15.1726 13.3677 15.9242L10.2189 17.7418C10.0752 17.8247 9.89097 17.8246 9.74747 17.7419L6.59863 15.9242C5.2973 15.1726 4.48883 13.7723 4.48883 12.2697V8.49734C4.48879 8.34359 4.36421 8.21901 4.21046 8.21901Z" fill="currentcolor"/>
<path d="M6.60949 9.70726C6.83553 9.70726 7.04799 9.79525 7.20779 9.95505L8.66217 11.4091C8.77091 11.5178 8.94708 11.5177 9.05577 11.4091L10.649 9.81589C10.7576 9.70715 10.7576 9.53095 10.649 9.42225C10.5403 9.31359 10.364 9.31359 10.2554 9.42225L8.85897 10.8187L7.60143 9.56145C7.33653 9.29652 6.98427 9.15063 6.60953 9.15063C6.23478 9.15063 5.88252 9.29655 5.61762 9.56142C5.35254 9.82654 5.20654 10.1789 5.20654 10.5537C5.20654 10.9285 5.35257 11.2808 5.61762 11.5456L7.86674 13.7948C8.13149 14.0599 8.48386 14.206 8.85901 14.206C9.23391 14.206 9.58617 14.0599 9.85073 13.7949L14.3492 9.29637C14.6144 9.03143 14.7604 8.67914 14.7604 8.30435C14.7604 7.92957 14.6144 7.5772 14.3493 7.31211C14.0844 7.04721 13.7322 6.90137 13.3574 6.90137C12.9827 6.90137 12.6304 7.04725 12.3655 7.31211L11.1739 8.50371C11.0652 8.61245 11.0652 8.78865 11.1739 8.89735C11.2826 9.00601 11.4588 9.00601 11.5675 8.89735L12.7591 7.70571C12.9189 7.54595 13.1313 7.458 13.3574 7.458C13.5835 7.458 13.7959 7.54595 13.9557 7.70575C14.1157 7.8657 14.2038 8.07827 14.2038 8.30435C14.2038 8.5304 14.1157 8.74282 13.9557 8.90266L9.45694 13.4015C9.29737 13.5613 9.08502 13.6494 8.85901 13.6494C8.63275 13.6494 8.42025 13.5613 8.26052 13.4013L6.01115 11.1519C5.85127 10.9922 5.76321 10.7797 5.76321 10.5537C5.76321 10.3276 5.85131 10.115 6.01126 9.95505C6.17098 9.79525 6.38345 9.70726 6.60949 9.70726Z" fill="currentcolor"/>
</g>
<defs>
<clipPath id="clip0_3466_1976">
<rect width="19" height="19" fill="currentcolor" transform="translate(0.483398 0.860352)"/>
</clipPath>
</defs>
</svg>
