<svg width="20" height="18" viewBox="0 0 20 18" fill="none" xmlns="http://www.w3.org/2000/svg">
<path d="M4.50009 8.06446H2C1.44772 8.06446 1 8.51216 1 9.06446V14.0645C1 14.6168 1.44772 15.0645 2 15.0645H5M18.4484 9.25506L16.2817 15.1291C15.9692 15.9763 15.1306 16.5092 14.2313 16.4273C12.2655 16.2484 8.7949 15.9265 6.26203 15.6593C5.25541 15.553 4.50009 14.7013 4.50009 13.6891V8.61676C4.50009 8.07136 4.72283 7.54958 5.11671 7.17234L10.1527 2.34902C10.2223 2.28236 10.2856 2.20938 10.3509 2.13854C10.8887 1.55543 11.7716 1.39314 12.4963 1.75995C13.2656 2.14896 13.6348 3.02074 13.3699 3.82327L12.094 6.49787C11.9357 6.8297 12.1777 7.21315 12.5453 7.21315H16.8126C17.3329 7.21315 17.8238 7.44609 18.144 7.84506C18.4634 8.24406 18.5765 8.76456 18.4484 9.25506Z" stroke="currentColor" stroke-width="2" stroke-linecap="round"/>
</svg>
