<svg width="20" height="20" viewBox="0 0 20 20" fill="none" xmlns="http://www.w3.org/2000/svg">
<g clip-path="url(#clip0_3466_1996)">
<path d="M10.2313 11.2296C10.1962 11.222 10.1601 11.2207 10.1245 11.226C9.76766 11.1844 9.49846 10.8825 9.49785 10.5234C9.49785 10.3513 9.35831 10.2117 9.1862 10.2117C9.01409 10.2117 8.87454 10.3513 8.87454 10.5234C8.87546 11.1231 9.27659 11.6484 9.85486 11.8071V12.1188C9.85486 12.2909 9.9944 12.4304 10.1665 12.4304C10.3386 12.4304 10.4782 12.2909 10.4782 12.1188V11.826C11.1456 11.6863 11.5992 11.0647 11.5291 10.3864C11.4588 9.70818 10.8874 9.19277 10.2055 9.19261C9.81468 9.19261 9.49785 8.87578 9.49785 8.485C9.49785 8.09421 9.81468 7.77738 10.2055 7.77738C10.5963 7.77738 10.9131 8.09421 10.9131 8.485C10.9131 8.65711 11.0526 8.79665 11.2247 8.79665C11.3968 8.79665 11.5364 8.65711 11.5364 8.485C11.5355 7.8553 11.0943 7.31218 10.4782 7.18222V6.89857C10.4782 6.72646 10.3386 6.58691 10.1665 6.58691C9.9944 6.58691 9.85486 6.72646 9.85486 6.89857V7.20125C9.21176 7.37686 8.79785 8.00123 8.88641 8.66198C8.97498 9.32272 9.53879 9.81592 10.2055 9.81577C10.5911 9.81577 10.9056 10.1245 10.9126 10.51C10.9198 10.8955 10.6166 11.2156 10.2313 11.2296Z" fill="currentcolor"/>
<path d="M5.68652 9.52809C5.68652 12.0241 7.70984 14.0474 10.2058 14.0474C12.7018 14.0474 14.7251 12.0241 14.7251 9.52809C14.7251 7.03211 12.7018 5.00879 10.2058 5.00879C7.71106 5.01153 5.68941 7.03333 5.68652 9.52809ZM10.2058 5.6321C12.3576 5.6321 14.1018 7.37633 14.1018 9.52809C14.1018 11.6799 12.3576 13.4241 10.2058 13.4241C8.05406 13.4241 6.30983 11.6799 6.30983 9.52809C6.31227 7.3774 8.05513 5.63453 10.2058 5.6321Z" fill="currentcolor"/>
<path d="M16.2612 14.8159L13.8198 15.9694C13.4827 15.3425 12.8362 14.9435 12.1246 14.9234L9.87087 14.8614C9.51402 14.8512 9.16386 14.7608 8.84658 14.597L8.61725 14.4781C7.44306 13.8661 6.04351 13.8676 4.87054 14.4821L4.88485 13.9625C4.88956 13.7904 4.75398 13.6471 4.58187 13.6424L2.11054 13.5743C1.93843 13.5696 1.79523 13.7052 1.79052 13.8773L1.64123 19.3005C1.63652 19.4726 1.7721 19.616 1.94421 19.6207L4.41554 19.6887H4.42406C4.59297 19.6887 4.73115 19.5544 4.73572 19.3856L4.74287 19.1261L5.38489 18.7824C5.6369 18.6468 5.93151 18.6145 6.20679 18.6924L10.0407 19.7685C10.0474 19.7705 10.0541 19.772 10.0609 19.7735C10.338 19.8315 10.6205 19.8605 10.9035 19.8604C11.5031 19.8607 12.0957 19.7315 12.6406 19.4813C12.654 19.4752 12.6669 19.4681 12.6793 19.46L18.2381 15.8644C18.3765 15.7748 18.4213 15.5929 18.3402 15.4493C17.9275 14.717 17.0121 14.4381 16.2612 14.8159ZM2.27291 19.0062L2.405 14.206L4.25317 14.2568L4.12108 19.0572L2.27291 19.0062ZM12.3598 18.9247C11.6828 19.2302 10.9267 19.3145 10.199 19.1659L6.3754 18.0926C5.94505 17.971 5.48442 18.0214 5.09074 18.233L4.76265 18.4088L4.85046 15.2172C5.89012 14.5257 7.22347 14.4547 8.3307 15.0316L8.56003 15.1504C8.96086 15.3574 9.40293 15.4715 9.85382 15.4846L12.1077 15.5465C12.7407 15.5648 13.2784 16.0155 13.4068 16.6358L10.0497 16.5431C9.87756 16.5384 9.73437 16.6741 9.7295 16.8461C9.72478 17.0182 9.86052 17.1616 10.0325 17.1663L13.7373 17.2682H13.746C13.9148 17.2681 14.0528 17.1337 14.0574 16.9651C14.0612 16.8297 14.0511 16.6941 14.0272 16.5608L16.5313 15.3776C16.5337 15.3765 16.5361 15.3753 16.5386 15.3741C16.8938 15.1944 17.3232 15.2545 17.6154 15.5249L12.3598 18.9247Z" fill="currentcolor"/>
<path d="M10.5174 4.13273V1.17201C10.5174 0.999896 10.3778 0.860352 10.2057 0.860352C10.0336 0.860352 9.89404 0.999896 9.89404 1.17201V4.13273C9.89404 4.30484 10.0336 4.44438 10.2057 4.44438C10.3778 4.44438 10.5174 4.30484 10.5174 4.13273Z" fill="currentcolor"/>
<path d="M12.8548 4.13256V2.73011C12.8548 2.558 12.7152 2.41846 12.5431 2.41846C12.371 2.41846 12.2314 2.558 12.2314 2.73011V4.13256C12.2314 4.30467 12.371 4.44421 12.5431 4.44421C12.7152 4.44421 12.8548 4.30467 12.8548 4.13256Z" fill="currentcolor"/>
<path d="M8.17995 4.13256V2.73011C8.17995 2.558 8.04041 2.41846 7.8683 2.41846C7.69619 2.41846 7.55664 2.558 7.55664 2.73011V4.13256C7.55664 4.30467 7.69619 4.44421 7.8683 4.44421C8.04041 4.44421 8.17995 4.30467 8.17995 4.13256Z" fill="currentcolor"/>
</g>
<defs>
<clipPath id="clip0_3466_1996">
<rect width="19" height="19" fill="currentcolor" transform="translate(0.483398 0.860352)"/>
</clipPath>
</defs>
</svg>
