<svg width="17" height="8" viewBox="0 0 17 8" fill="none" xmlns="http://www.w3.org/2000/svg">
<path d="M1 3.36035C0.723858 3.36035 0.5 3.58421 0.5 3.86035C0.5 4.13649 0.723858 4.36035 1 4.36035L1 3.36035ZM16.3536 4.21391C16.5488 4.01864 16.5488 3.70206 16.3536 3.5068L13.1716 0.324819C12.9763 0.129557 12.6597 0.129556 12.4645 0.324819C12.2692 0.520081 12.2692 0.836663 12.4645 1.03193L15.2929 3.86035L12.4645 6.68878C12.2692 6.88404 12.2692 7.20062 12.4645 7.39589C12.6597 7.59115 12.9763 7.59115 13.1716 7.39589L16.3536 4.21391ZM1 4.36035L16 4.36035L16 3.36035L1 3.36035L1 4.36035Z" fill="currentColor"/>
</svg>
