<svg width="17" height="22" viewBox="0 0 17 22" fill="none" xmlns="http://www.w3.org/2000/svg">
<path d="M14.5 6.5H15C15.5523 6.5 16 6.05228 16 5.5V5C16 4.44772 15.5523 4 15 4H12M14.5 6.5V18.5C14.5 19.6046 13.6046 20.5 12.5 20.5H4.5C3.39543 20.5 2.5 19.6046 2.5 18.5V6.5M14.5 6.5H2.5M12 4V3.5C12 2.39543 11.1046 1.5 10 1.5H7C5.89543 1.5 5 2.39543 5 3.5V4M12 4H5M2.5 6.5H2C1.44772 6.5 1 6.05228 1 5.5V5C1 4.44772 1.44772 4 2 4H5M6.5 10V17M10.5 10V17" stroke="currentColor" stroke-opacity="1" stroke-width="2" stroke-linecap="round"/>
</svg>
