<svg width="17" height="21" viewBox="0 0 17 21" fill="none" xmlns="http://www.w3.org/2000/svg">
<path d="M15.707 3.37201L9.17875 0.553215C8.58314 0.296044 7.90001 0.296083 7.30463 0.553215L0.77632 3.37201C0.304724 3.57561 2.48103e-06 4.03291 2.48103e-06 4.53709V8.82448C-0.00175575 11.5702 0.931044 14.2714 2.62664 16.4307C2.7271 16.5586 2.91179 16.5796 3.03807 16.4802C3.16537 16.3802 3.18752 16.196 3.08757 16.0687C1.47277 14.0124 0.584399 11.4398 0.586079 8.82464V4.53709C0.586079 4.26699 0.751939 4.02088 1.0086 3.91007L7.53695 1.09127C7.98475 0.897828 8.49851 0.897828 8.94639 1.09127L15.4747 3.91007C15.7314 4.02088 15.8972 4.26699 15.8972 4.53709V6.181C15.8972 6.34288 16.0284 6.47404 16.1903 6.47404C16.3521 6.47404 16.4833 6.34288 16.4833 6.181V4.53709C16.4833 4.03291 16.1786 3.57561 15.707 3.37201Z" fill="currentcolor"/>
<path d="M15.707 3.37201L9.17875 0.553215C8.58314 0.296044 7.90001 0.296083 7.30463 0.553215L0.77632 3.37201C0.304724 3.57561 2.48103e-06 4.03291 2.48103e-06 4.53709V8.82448C-0.00175575 11.5702 0.931044 14.2714 2.62664 16.4307C2.7271 16.5586 2.91179 16.5796 3.03807 16.4802C3.16537 16.3802 3.18752 16.196 3.08757 16.0687C1.47277 14.0124 0.584399 11.4398 0.586079 8.82464V4.53709C0.586079 4.26699 0.751939 4.02088 1.0086 3.91007L7.53695 1.09127C7.98475 0.897828 8.49851 0.897828 8.94639 1.09127L15.4747 3.91007C15.7314 4.02088 15.8972 4.26699 15.8972 4.53709V6.181C15.8972 6.34288 16.0284 6.47404 16.1903 6.47404C16.3521 6.47404 16.4833 6.34288 16.4833 6.181V4.53709C16.4833 4.03291 16.1786 3.57561 15.707 3.37201Z" stroke="currentcolor"/>
<path d="M16.1903 7.26465C16.0285 7.26465 15.8973 7.39581 15.8973 7.55769V8.8249C15.9001 13.231 13.4717 17.2212 9.55958 19.2387L8.68343 19.6721C8.40684 19.8089 8.07657 19.809 7.79998 19.6721L6.92379 19.2387C5.82908 18.6741 4.83548 17.9445 3.97063 17.07C3.85677 16.9549 3.67122 16.9538 3.55623 17.0676C3.44116 17.1814 3.44011 17.367 3.55389 17.482C4.46278 18.401 5.50693 19.1677 6.6574 19.7607L6.66174 19.7629L7.54011 20.1974C7.75977 20.306 8.00073 20.3603 8.24168 20.3603C8.48264 20.3603 8.72359 20.306 8.94326 20.1974L9.82163 19.7629L9.82597 19.7607C11.833 18.7261 13.5149 17.1591 14.6897 15.2292C15.8645 13.2992 16.4847 11.0845 16.4833 8.82463V7.55765C16.4834 7.39581 16.3522 7.26465 16.1903 7.26465Z" fill="currentcolor"/>
<path d="M16.1903 7.26465C16.0285 7.26465 15.8973 7.39581 15.8973 7.55769V8.8249C15.9001 13.231 13.4717 17.2212 9.55958 19.2387L8.68343 19.6721C8.40684 19.8089 8.07657 19.809 7.79998 19.6721L6.92379 19.2387C5.82908 18.6741 4.83548 17.9445 3.97063 17.07C3.85677 16.9549 3.67122 16.9538 3.55623 17.0676C3.44116 17.1814 3.44011 17.367 3.55389 17.482C4.46278 18.401 5.50693 19.1677 6.6574 19.7607L6.66174 19.7629L7.54011 20.1974C7.75977 20.306 8.00073 20.3603 8.24168 20.3603C8.48264 20.3603 8.72359 20.306 8.94326 20.1974L9.82163 19.7629L9.82597 19.7607C11.833 18.7261 13.5149 17.1591 14.6897 15.2292C15.8645 13.2992 16.4847 11.0845 16.4833 8.82463V7.55765C16.4834 7.39581 16.3522 7.26465 16.1903 7.26465Z" stroke="currentcolor"/>
<path d="M3.96513 3.69743L1.73987 4.65824C1.6325 4.70462 1.56299 4.81035 1.56299 4.92729V8.8254C1.56174 10.7984 2.10312 12.7318 3.12868 14.4165C4.1517 16.097 5.61556 17.4626 7.36219 18.3656C7.41979 18.3897 7.4971 18.4302 7.5835 18.4756C7.80207 18.5903 8.07882 18.7356 8.24186 18.7212C8.40338 18.7363 8.68259 18.5898 8.90167 18.4748C8.98784 18.4296 9.0647 18.3893 9.12144 18.3656C9.90092 17.9626 10.6297 17.4641 11.2875 16.884C11.4089 16.7769 11.4205 16.5917 11.3135 16.4703C11.2064 16.349 11.0213 16.3373 10.8999 16.4444C10.2787 16.9922 9.5905 17.4631 8.85442 17.8438L8.28503 18.1255C8.25807 18.1388 8.22568 18.1389 8.19849 18.1254L7.62917 17.8438C5.97905 16.9902 4.59598 15.6997 3.62931 14.1117C2.65978 12.5189 2.1479 10.6911 2.14907 8.82556V5.11991L4.19745 4.23548C4.34604 4.17129 4.41449 3.99886 4.35034 3.85031C4.28618 3.70168 4.11356 3.63327 3.96513 3.69743Z" fill="currentcolor"/>
<path d="M3.96513 3.69743L1.73987 4.65824C1.6325 4.70462 1.56299 4.81035 1.56299 4.92729V8.8254C1.56174 10.7984 2.10312 12.7318 3.12868 14.4165C4.1517 16.097 5.61556 17.4626 7.36219 18.3656C7.41979 18.3897 7.4971 18.4302 7.5835 18.4756C7.80207 18.5903 8.07882 18.7356 8.24186 18.7212C8.40338 18.7363 8.68259 18.5898 8.90167 18.4748C8.98784 18.4296 9.0647 18.3893 9.12144 18.3656C9.90092 17.9626 10.6297 17.4641 11.2875 16.884C11.4089 16.7769 11.4205 16.5917 11.3135 16.4703C11.2064 16.349 11.0213 16.3373 10.8999 16.4444C10.2787 16.9922 9.5905 17.4631 8.85442 17.8438L8.28503 18.1255C8.25807 18.1388 8.22568 18.1389 8.19849 18.1254L7.62917 17.8438C5.97905 16.9902 4.59598 15.6997 3.62931 14.1117C2.65978 12.5189 2.1479 10.6911 2.14907 8.82556V5.11991L4.19745 4.23548C4.34604 4.17129 4.41449 3.99886 4.35034 3.85031C4.28618 3.70168 4.11356 3.63327 3.96513 3.69743Z" stroke="currentcolor"/>
<path d="M11.8659 15.9148C11.9874 16.0208 12.1727 16.0088 12.2793 15.8864C12.6774 15.4295 13.0393 14.935 13.3548 14.4167C14.3804 12.732 14.9218 10.7983 14.9205 8.8248V4.92754C14.9205 4.8106 14.851 4.70487 14.7436 4.65849L8.56029 1.98868C8.35782 1.90034 8.12558 1.90034 7.92428 1.98821L5.25998 3.1386C5.11139 3.2028 5.04293 3.37522 5.10709 3.52377C5.17124 3.6724 5.34382 3.74081 5.49226 3.67666L8.15765 2.5258C8.21032 2.50278 8.27315 2.50278 8.32695 2.52627L14.3345 5.12021V8.82499C14.3357 10.691 13.8238 12.5192 12.8543 14.112C12.556 14.602 12.2138 15.0695 11.8375 15.5014C11.7311 15.6234 11.7439 15.8086 11.8659 15.9148Z" fill="currentcolor"/>
<path d="M11.8659 15.9148C11.9874 16.0208 12.1727 16.0088 12.2793 15.8864C12.6774 15.4295 13.0393 14.935 13.3548 14.4167C14.3804 12.732 14.9218 10.7983 14.9205 8.8248V4.92754C14.9205 4.8106 14.851 4.70487 14.7436 4.65849L8.56029 1.98868C8.35782 1.90034 8.12558 1.90034 7.92428 1.98821L5.25998 3.1386C5.11139 3.2028 5.04293 3.37522 5.10709 3.52377C5.17124 3.6724 5.34382 3.74081 5.49226 3.67666L8.15765 2.5258C8.21032 2.50278 8.27315 2.50278 8.32695 2.52627L14.3345 5.12021V8.82499C14.3357 10.691 13.8238 12.5192 12.8543 14.112C12.556 14.602 12.2138 15.0695 11.8375 15.5014C11.7311 15.6234 11.7439 15.8086 11.8659 15.9148Z" stroke="currentcolor"/>
<path d="M11.2745 6.57178C11.1126 6.57178 10.9814 6.70294 10.9814 6.86482V10.5372C10.9814 10.68 11.0844 10.802 11.2251 10.8261L11.2251 10.8261C11.2459 10.8296 11.2685 10.8335 11.668 10.8335C11.8625 10.8335 12.1465 10.8326 12.5632 10.8303C12.725 10.8294 12.8554 10.6975 12.8546 10.5356C12.8537 10.3743 12.7226 10.2442 12.5616 10.2442H12.5599C12.2646 10.2459 11.8427 10.2474 11.5675 10.2473V6.86482C11.5675 6.70298 11.4364 6.57178 11.2745 6.57178Z" fill="currentcolor"/>
<path d="M11.2745 6.57178C11.1126 6.57178 10.9814 6.70294 10.9814 6.86482V10.5372C10.9814 10.68 11.0844 10.802 11.2251 10.8261L11.2251 10.8261C11.2459 10.8296 11.2685 10.8335 11.668 10.8335C11.8625 10.8335 12.1465 10.8326 12.5632 10.8303C12.725 10.8294 12.8554 10.6975 12.8546 10.5356C12.8537 10.3743 12.7226 10.2442 12.5616 10.2442H12.5599C12.2646 10.2459 11.8427 10.2474 11.5675 10.2473V6.86482C11.5675 6.70298 11.4364 6.57178 11.2745 6.57178Z" stroke="currentcolor"/>
<path d="M8.87905 10.2476C8.46759 10.2476 8.06992 10.0799 7.81536 9.79902C7.70663 9.67903 7.52131 9.67004 7.40144 9.77866C7.28153 9.88736 7.27239 10.0727 7.38108 10.1926C7.74492 10.594 8.30489 10.8337 8.87905 10.8337C9.56171 10.8337 10.1562 10.3874 10.2619 9.79558C10.3415 9.34938 10.1306 8.76345 9.29966 8.45694C8.8208 8.28029 8.3771 8.08732 8.2718 8.04102C8.14173 7.94744 8.07836 7.7967 8.10176 7.63361C8.13059 7.43271 8.28352 7.27189 8.51084 7.20343C9.11954 7.01999 9.66603 7.45994 9.67596 7.46807C9.79985 7.57137 9.98404 7.55512 10.0879 7.4315C10.192 7.3076 10.176 7.12275 10.0521 7.01862C10.0203 6.99178 9.26074 6.36546 8.34182 6.6422C7.8971 6.77618 7.58281 7.12412 7.52166 7.55027C7.46485 7.94611 7.63622 8.32675 7.96888 8.54368C7.98185 8.55215 7.99545 8.55954 8.00955 8.56583C8.03061 8.57521 8.5319 8.79831 9.0968 9.00668C9.52049 9.16296 9.73484 9.41291 9.6849 9.69247C9.63685 9.96155 9.3381 10.2476 8.87905 10.2476Z" fill="currentcolor"/>
<path d="M8.87905 10.2476C8.46759 10.2476 8.06992 10.0799 7.81536 9.79902C7.70663 9.67903 7.52131 9.67004 7.40144 9.77866C7.28153 9.88736 7.27239 10.0727 7.38108 10.1926C7.74492 10.594 8.30489 10.8337 8.87905 10.8337C9.56171 10.8337 10.1562 10.3874 10.2619 9.79558C10.3415 9.34938 10.1306 8.76345 9.29966 8.45694C8.8208 8.28029 8.3771 8.08732 8.2718 8.04102C8.14173 7.94744 8.07836 7.7967 8.10176 7.63361C8.13059 7.43271 8.28352 7.27189 8.51084 7.20343C9.11954 7.01999 9.66603 7.45994 9.67596 7.46807C9.79985 7.57137 9.98404 7.55512 10.0879 7.4315C10.192 7.3076 10.176 7.12275 10.0521 7.01862C10.0203 6.99178 9.26074 6.36546 8.34182 6.6422C7.8971 6.77618 7.58281 7.12412 7.52166 7.55027C7.46485 7.94611 7.63622 8.32675 7.96888 8.54368C7.98185 8.55215 7.99545 8.55954 8.00955 8.56583C8.03061 8.57521 8.5319 8.79831 9.0968 9.00668C9.52049 9.16296 9.73484 9.41291 9.6849 9.69247C9.63685 9.96155 9.3381 10.2476 8.87905 10.2476Z" stroke="currentcolor"/>
<path d="M3.84539 7.54982C3.78858 7.94566 3.95995 8.32629 4.29261 8.54322C4.30558 8.5517 4.31918 8.55908 4.33328 8.56537C4.35434 8.57475 4.85563 8.79785 5.42053 9.00622C5.84422 9.16251 6.05857 9.41245 6.00864 9.69201C5.96062 9.9611 5.66184 10.2471 5.20278 10.2471C4.79132 10.2471 4.39365 10.0794 4.13909 9.79852C4.0304 9.67853 3.84504 9.66954 3.72517 9.77816C3.60526 9.88686 3.59612 10.0722 3.70481 10.1921C4.06865 10.5935 4.62862 10.8332 5.20278 10.8332C5.88544 10.8332 6.47996 10.3869 6.58561 9.79508C6.66528 9.34888 6.45437 8.76296 5.62339 8.45644C5.14453 8.2798 4.70083 8.08682 4.59553 8.04052C4.46546 7.94695 4.40209 7.79621 4.42549 7.63312C4.45433 7.43222 4.60725 7.2714 4.83457 7.20294C5.44327 7.0195 5.98977 7.45945 5.99969 7.46758C6.12359 7.57088 6.30777 7.55463 6.41162 7.431C6.51575 7.30711 6.49977 7.12226 6.37587 7.01813C6.34399 6.99129 5.58447 6.36497 4.66555 6.64172C4.22083 6.77573 3.90654 7.12367 3.84539 7.54982Z" fill="currentcolor"/>
<path d="M3.84539 7.54982C3.78858 7.94566 3.95995 8.32629 4.29261 8.54322C4.30558 8.5517 4.31918 8.55908 4.33328 8.56537C4.35434 8.57475 4.85563 8.79785 5.42053 9.00622C5.84422 9.16251 6.05857 9.41245 6.00864 9.69201C5.96062 9.9611 5.66184 10.2471 5.20278 10.2471C4.79132 10.2471 4.39365 10.0794 4.13909 9.79852C4.0304 9.67853 3.84504 9.66954 3.72517 9.77816C3.60526 9.88686 3.59612 10.0722 3.70481 10.1921C4.06865 10.5935 4.62862 10.8332 5.20278 10.8332C5.88544 10.8332 6.47996 10.3869 6.58561 9.79508C6.66528 9.34888 6.45437 8.76296 5.62339 8.45644C5.14453 8.2798 4.70083 8.08682 4.59553 8.04052C4.46546 7.94695 4.40209 7.79621 4.42549 7.63312C4.45433 7.43222 4.60725 7.2714 4.83457 7.20294C5.44327 7.0195 5.98977 7.45945 5.99969 7.46758C6.12359 7.57088 6.30777 7.55463 6.41162 7.431C6.51575 7.30711 6.49977 7.12226 6.37587 7.01813C6.34399 6.99129 5.58447 6.36497 4.66555 6.64172C4.22083 6.77573 3.90654 7.12367 3.84539 7.54982Z" stroke="currentcolor"/>
</svg>
