<svg width="20" height="20" viewBox="0 0 20 20" fill="none" xmlns="http://www.w3.org/2000/svg">
<g clip-path="url(#clip0_3466_1984)">
<path d="M14.0654 15.5557C13.8606 15.5557 13.6943 15.7219 13.6943 15.9268C13.6943 16.1316 13.8606 16.2979 14.0654 16.2979C14.2703 16.2979 14.4365 16.1316 14.4365 15.9268C14.4365 15.7219 14.2703 15.5557 14.0654 15.5557Z" fill="currentcolor"/>
<path d="M14.9791 14.3557L13.2153 13.7678L12.5821 12.5014C13.1526 11.9208 13.5486 11.1526 13.6822 10.3513L13.7612 9.87793H14.4365C15.0504 9.87793 15.5498 9.37851 15.5498 8.76465V6.42676C15.5498 3.35744 13.0527 0.860352 9.9834 0.860352C6.90621 0.860352 4.41699 3.35028 4.41699 6.42676V8.76465C4.41699 9.24841 4.72726 9.66091 5.15918 9.8141V10.249C5.15918 10.8629 5.6586 11.3623 6.27246 11.3623H6.59836C6.75922 11.7118 6.96745 12.0354 7.22083 12.3262C7.27338 12.3866 7.32819 12.4452 7.38433 12.5021L6.75147 13.7678L4.98762 14.3557C2.93677 15.0395 1.44824 17.1985 1.44824 19.4893C1.44824 19.6942 1.61438 19.8604 1.81934 19.8604H18.1475C18.3524 19.8604 18.5186 19.6942 18.5186 19.4893C18.5186 17.1985 17.0301 15.0395 14.9791 14.3557ZM14.8076 8.76465C14.8076 8.96927 14.6411 9.13574 14.4365 9.13574H13.8702C13.9645 8.40506 14.0274 7.62751 14.0526 6.86168C14.0534 6.84008 14.054 6.81908 14.0546 6.79785H14.8076V8.76465ZM5.53027 9.13574C5.32565 9.13574 5.15918 8.96927 5.15918 8.76465V6.79785H5.91243C5.91365 6.83656 5.91495 6.87545 5.9164 6.9146C5.91643 6.91593 5.91651 6.91723 5.91654 6.91857C5.91654 6.91868 5.91654 6.91879 5.91654 6.9189C5.94252 7.66376 6.00457 8.42113 6.09675 9.1357H5.53027V9.13574ZM6.27246 10.6201C6.06784 10.6201 5.90137 10.4536 5.90137 10.249V9.87793H6.20559L6.28456 10.3514C6.29962 10.4414 6.31814 10.5311 6.33955 10.6201H6.27246ZM5.902 6.05566H5.17328C5.36124 3.56856 7.43684 1.60254 9.9834 1.60254C12.5186 1.60254 14.6034 3.5683 14.7935 6.05566H14.0648C14.0381 4.00622 12.3692 2.34473 10.3156 2.34473H9.65131C7.59771 2.34473 5.92868 4.00622 5.902 6.05566ZM9.65127 3.08691H10.3155C11.9784 3.08691 13.3242 4.44701 13.3232 6.10799C13.3232 6.22477 13.3223 6.32645 13.3203 6.41896C13.3203 6.42015 13.3203 6.42138 13.3203 6.4226L12.8561 6.35629C11.5952 6.17623 10.4046 5.58092 9.50361 4.67998C9.43399 4.6104 9.33962 4.57129 9.24121 4.57129C8.2446 4.57129 7.29059 5.02536 6.65996 5.79248C6.81537 4.28143 8.09279 3.08691 9.65127 3.08691ZM7.10891 10.6201C6.92314 10.0021 6.71057 8.18378 6.66359 7.01854L7.16305 6.35258C7.62176 5.74116 8.33541 5.36127 9.09455 5.31767C10.0934 6.26826 11.3856 6.89601 12.7512 7.09098L13.2975 7.16906C13.261 7.94409 13.1864 8.72182 13.0795 9.43711C13.0794 9.43733 13.0794 9.43759 13.0794 9.43785C13.0454 9.66782 13.0186 9.81581 12.9501 10.2292C12.7536 11.4079 11.874 12.4739 10.7129 12.7642C10.2351 12.8835 9.73165 12.8835 9.25405 12.7642C8.52904 12.583 7.86427 12.0813 7.43525 11.3623H8.19176C8.34495 11.7942 8.75742 12.1045 9.24121 12.1045H9.9834C10.5985 12.1045 11.0967 11.6063 11.0967 10.9912C11.0967 10.3773 10.5973 9.87793 9.9834 9.87793H9.24121C8.74665 9.87793 8.34027 10.1974 8.19113 10.6201H7.10891ZM9.21 13.5152C9.46453 13.5689 9.72404 13.5963 9.9834 13.5963C10.1864 13.5963 10.3895 13.5793 10.5902 13.5463L9.93453 14.2398L9.21 13.5152ZM9.42435 14.7793L8.24731 16.024C7.92327 15.4038 7.64484 14.7583 7.41647 14.0974L7.85848 13.2134L9.42435 14.7793ZM12.0454 13.0877L12.5503 14.0974C12.3215 14.7593 12.043 15.4051 11.7193 16.0246L10.4595 14.7648L12.0454 13.0877ZM8.87012 10.9912C8.87012 10.7863 9.03629 10.6201 9.24121 10.6201H9.9834C10.188 10.6201 10.3545 10.7866 10.3545 10.9912C10.3545 11.1961 10.1883 11.3623 9.9834 11.3623H9.24121C9.03659 11.3623 8.87012 11.1958 8.87012 10.9912ZM2.20527 19.1182C2.35234 17.2798 3.5758 15.6088 5.22234 15.0598L6.78442 14.5392C7.07061 15.3306 7.42515 16.0997 7.84067 16.8303C7.84137 16.8316 7.84204 16.8329 7.84274 16.8341C7.84274 16.8341 7.84278 16.8341 7.84278 16.8342C8.14637 17.3681 8.48808 17.8899 8.85854 18.3853L9.31506 19.1182H2.20527ZM9.9834 18.7874L9.48012 17.9794C9.47448 17.9703 9.46847 17.9615 9.46209 17.953C9.16157 17.5521 8.88125 17.1329 8.62594 16.7038L9.94937 15.3043L11.3439 16.6988C11.0868 17.131 10.8056 17.552 10.5048 17.9529C10.4866 17.9772 10.5124 17.939 9.9834 18.7874ZM10.6517 19.1182L11.1082 18.3853C11.4803 17.8881 11.8245 17.3621 12.1311 16.8218C12.133 16.8186 12.1347 16.8152 12.1366 16.812C12.1368 16.8116 12.137 16.8112 12.1372 16.8108C12.5475 16.0871 12.8983 15.3247 13.1824 14.5392L14.7444 15.0598C16.391 15.6088 17.6145 17.2798 17.7615 19.1182H10.6517Z" fill="currentcolor"/>
<path d="M16.6464 17.6165C16.3984 17.1201 16.0352 16.6791 15.5959 16.3412C15.4335 16.2162 15.2005 16.2466 15.0755 16.409C14.9505 16.5715 14.9809 16.8045 15.1434 16.9294C15.4942 17.1993 15.7843 17.5516 15.9824 17.9482C16.0742 18.1319 16.2972 18.2058 16.4803 18.1143C16.6636 18.0228 16.738 17.7999 16.6464 17.6165Z" fill="currentcolor"/>
</g>
<defs>
<clipPath id="clip0_3466_1984">
<rect width="19" height="19" fill="currentcolor" transform="translate(0.483398 0.860352)"/>
</clipPath>
</defs>
</svg>
