<svg width="40" height="40" viewBox="0 0 40 40" fill="none" xmlns="http://www.w3.org/2000/svg">
<rect width="40" height="40" rx="5" fill="currentColor"/>
<path fill-rule="evenodd" clip-rule="evenodd" d="M31.6713 14.2406C31.8403 13.7118 31.6713 13.3232 30.8668 13.3232H28.2065C27.5301 13.3232 27.2182 13.6589 27.0491 14.029C27.0491 14.029 25.6962 17.1223 23.7797 19.1317C23.1597 19.7133 22.8778 19.8984 22.5396 19.8984C22.3705 19.8984 22.1257 19.7133 22.1257 19.1846V14.2406C22.1257 13.606 21.9294 13.3232 21.3657 13.3232H17.1852C16.7625 13.3232 16.5083 13.6177 16.5083 13.8969C16.5083 14.4984 17.4665 14.6371 17.5652 16.3292V20.0042C17.5652 20.8099 17.4101 20.956 17.0719 20.956C16.1701 20.956 13.9763 17.8488 12.6752 14.2934C12.4202 13.6024 12.1644 13.3232 11.4845 13.3232H8.82422C8.06414 13.3232 7.91211 13.6589 7.91211 14.029C7.91211 14.69 8.81401 17.9684 12.1115 22.3043C14.3099 25.2654 17.4071 26.8705 20.2256 26.8705C21.9166 26.8705 22.1258 26.514 22.1258 25.8999V23.6619C22.1258 22.9489 22.286 22.8066 22.8215 22.8066C23.216 22.8066 23.8925 22.9917 25.4708 24.4194C27.2746 26.1114 27.5719 26.8705 28.5865 26.8705H31.2469C32.0069 26.8705 32.387 26.514 32.1677 25.8104C31.9278 25.1093 31.0666 24.0919 29.9239 22.8859C29.3038 22.1985 28.3738 21.4583 28.0919 21.0881C27.6973 20.6122 27.8101 20.4007 28.0919 19.9777C28.0919 19.9777 31.3331 15.6947 31.6713 14.2406Z" fill="white"/>
</svg>
