<svg width="20" height="20" viewBox="0 0 20 20" fill="none" xmlns="http://www.w3.org/2000/svg">
<g clip-path="url(#clip0_3466_1962)">
<path d="M16.8115 5.61064H15.0303C14.9515 5.61064 14.876 5.64192 14.8204 5.69759C14.7647 5.75327 14.7334 5.82878 14.7334 5.90752C14.7334 5.98625 14.7647 6.06176 14.8204 6.11744C14.876 6.17311 14.9515 6.20439 15.0303 6.20439H16.8115C16.969 6.20439 17.12 6.26695 17.2314 6.3783C17.3427 6.48965 17.4053 6.64067 17.4053 6.79814V8.6928C17.2964 8.56551 17.1615 8.46303 17.0097 8.39226C16.8579 8.32149 16.6927 8.28407 16.5252 8.28253C16.3577 8.28098 16.1918 8.31534 16.0387 8.38329C15.8856 8.45125 15.7489 8.55122 15.6377 8.67647L13.9378 7.78792C14.0687 7.40149 14.1369 6.99656 14.1396 6.58855V5.90752C14.1396 5.82878 14.1084 5.75327 14.0527 5.69759C13.997 5.64192 13.9215 5.61064 13.8428 5.61064C13.764 5.61064 13.6885 5.64192 13.6329 5.69759C13.5772 5.75327 13.5459 5.82878 13.5459 5.90752V6.58855C13.5439 7.1459 13.4002 7.69358 13.1283 8.18013C12.8565 8.66668 12.4654 9.07612 11.9918 9.36997L9.9834 10.6059L7.97504 9.36997C7.50144 9.07612 7.11033 8.66668 6.83847 8.18013C6.56661 7.69358 6.42291 7.1459 6.4209 6.58855V3.5248C6.88646 3.50033 7.34766 3.42243 7.79543 3.29264C7.87073 3.27055 7.93422 3.21955 7.97202 3.15079C8.00982 3.08203 8.01887 3.00109 7.99717 2.92568C7.97547 2.85027 7.9248 2.78652 7.85623 2.74836C7.78767 2.7102 7.70678 2.70074 7.63126 2.72205C7.14147 2.86447 6.6341 2.93742 6.12402 2.93877C6.04529 2.93877 5.96978 2.97004 5.9141 3.02572C5.85843 3.08139 5.82715 3.15691 5.82715 3.23564V3.54825L4.6064 2.90908C4.67456 2.62504 4.63671 2.3259 4.49994 2.0678C4.36316 1.8097 4.13688 1.6104 3.86357 1.50732C3.59027 1.40424 3.28873 1.40447 3.01558 1.50796C2.74243 1.61146 2.51645 1.8111 2.38007 2.0694C2.24369 2.32771 2.20629 2.62692 2.27488 2.91085C2.34348 3.19478 2.51336 3.4439 2.75263 3.61145C2.9919 3.77901 3.28409 3.85346 3.57437 3.82083C3.86464 3.7882 4.13302 3.65074 4.32912 3.43425L5.82715 4.2183V5.61064H3.15527C2.84033 5.61064 2.53828 5.73575 2.31558 5.95845C2.09288 6.18115 1.96777 6.4832 1.96777 6.79814V7.98564C1.96777 8.06438 1.99905 8.13989 2.05473 8.19556C2.1104 8.25124 2.18591 8.28252 2.26465 8.28252C2.34338 8.28252 2.4189 8.25124 2.47457 8.19556C2.53025 8.13989 2.56152 8.06438 2.56152 7.98564V6.79814C2.56152 6.64067 2.62408 6.48965 2.73543 6.3783C2.84678 6.26695 2.9978 6.20439 3.15527 6.20439H5.82715V6.58855C5.82992 6.99656 5.89807 7.40149 6.02902 7.78792L4.32912 8.67647C4.1327 8.45941 3.8638 8.32154 3.57292 8.28873C3.28203 8.25592 2.98917 8.33044 2.74935 8.49829C2.50952 8.66614 2.33922 8.91578 2.27044 9.20031C2.20166 9.48485 2.23913 9.7847 2.3758 10.0436C2.51248 10.3024 2.73896 10.5025 3.01271 10.6062C3.28647 10.7099 3.58866 10.71 3.86253 10.6067C4.1364 10.5033 4.36311 10.3035 4.50008 10.0448C4.63705 9.78607 4.67486 9.48625 4.6064 9.20164L6.25791 8.33833C6.57687 8.96988 7.06325 9.50165 7.66391 9.87555L9.82784 11.2073C9.87462 11.2361 9.92847 11.2513 9.9834 11.2513C10.0383 11.2513 10.0922 11.2361 10.139 11.2073L12.3029 9.87555C12.9035 9.50165 13.3899 8.96988 13.7089 8.33833L15.3604 9.20283C15.2994 9.46035 15.3266 9.73089 15.4377 9.97111C15.5487 10.2113 15.7372 10.4073 15.9729 10.5277C16.2086 10.6481 16.4778 10.6859 16.7375 10.635C16.9973 10.5842 17.2324 10.4476 17.4053 10.2472V15.1106C17.4053 15.2681 17.3427 15.4191 17.2314 15.5305C17.12 15.6418 16.969 15.7044 16.8115 15.7044H3.15527C2.9978 15.7044 2.84678 15.6418 2.73543 15.5305C2.62408 15.4191 2.56152 15.2681 2.56152 15.1106V10.9544C2.56152 10.8757 2.53025 10.8001 2.47457 10.7445C2.4189 10.6888 2.34338 10.6575 2.26465 10.6575C2.18591 10.6575 2.1104 10.6888 2.05473 10.7445C1.99905 10.8001 1.96777 10.8757 1.96777 10.9544V15.1106C1.96777 15.4256 2.09288 15.7276 2.31558 15.9503C2.53828 16.173 2.84033 16.2981 3.15527 16.2981H6.83118L6.23743 17.4856H4.49121C4.255 17.4856 4.02847 17.5795 3.86144 17.7465C3.69442 17.9135 3.60059 18.1401 3.60059 18.3763V18.97C3.60059 19.0487 3.63186 19.1243 3.68754 19.1799C3.74321 19.2356 3.81872 19.2669 3.89746 19.2669H12.0615C12.1403 19.2669 12.2158 19.2356 12.2714 19.1799C12.3271 19.1243 12.3584 19.0487 12.3584 18.97C12.3584 18.8913 12.3271 18.8158 12.2714 18.7601C12.2158 18.7044 12.1403 18.6731 12.0615 18.6731H4.19434V18.3763C4.19434 18.2975 4.22561 18.222 4.28129 18.1663C4.33696 18.1107 4.41247 18.0794 4.49121 18.0794H15.4756C15.5543 18.0794 15.6298 18.1107 15.6855 18.1663C15.7412 18.222 15.7725 18.2975 15.7725 18.3763V18.6731H13.249C13.1703 18.6731 13.0948 18.7044 13.0391 18.7601C12.9834 18.8158 12.9521 18.8913 12.9521 18.97C12.9521 19.0487 12.9834 19.1243 13.0391 19.1799C13.0948 19.2356 13.1703 19.2669 13.249 19.2669H16.0693C16.1481 19.2669 16.2236 19.2356 16.2793 19.1799C16.3349 19.1243 16.3662 19.0487 16.3662 18.97V18.3763C16.3662 18.1401 16.2724 17.9135 16.1054 17.7465C15.9383 17.5795 15.7118 17.4856 15.4756 17.4856H13.7294L13.1356 16.2981H16.8115C17.1265 16.2981 17.4285 16.173 17.6512 15.9503C17.8739 15.7276 17.999 15.4256 17.999 15.1106V6.79814C17.999 6.4832 17.8739 6.18115 17.6512 5.95845C17.4285 5.73575 17.1265 5.61064 16.8115 5.61064ZM3.45215 3.23564C3.33472 3.23564 3.21992 3.20082 3.12228 3.13558C3.02464 3.07033 2.94853 2.9776 2.90359 2.86911C2.85866 2.76062 2.8469 2.64123 2.86981 2.52606C2.89272 2.41088 2.94927 2.30508 3.0323 2.22205C3.11534 2.13901 3.22114 2.08246 3.33631 2.05955C3.45149 2.03664 3.57087 2.0484 3.67937 2.09334C3.78786 2.13828 3.88059 2.21438 3.94583 2.31202C4.01108 2.40966 4.0459 2.52446 4.0459 2.64189C4.0459 2.79936 3.98334 2.95039 3.87199 3.06174C3.76064 3.17309 3.60962 3.23564 3.45215 3.23564ZM3.45215 10.0638C3.33472 10.0638 3.21992 10.0289 3.12228 9.9637C3.02464 9.89846 2.94853 9.80573 2.90359 9.69723C2.85866 9.58874 2.8469 9.46936 2.86981 9.35418C2.89272 9.239 2.94927 9.13321 3.0323 9.05017C3.11534 8.96713 3.22114 8.91058 3.33631 8.88767C3.45149 8.86476 3.57087 8.87652 3.67937 8.92146C3.78786 8.9664 3.88059 9.0425 3.94583 9.14015C4.01108 9.23779 4.0459 9.35258 4.0459 9.47002C4.0459 9.62749 3.98334 9.77851 3.87199 9.88986C3.76064 10.0012 3.60962 10.0638 3.45215 10.0638ZM16.5146 10.0638C16.3972 10.0638 16.2824 10.0289 16.1848 9.9637C16.0871 9.89846 16.011 9.80573 15.9661 9.69723C15.9212 9.58874 15.9094 9.46936 15.9323 9.35418C15.9552 9.239 16.0118 9.13321 16.0948 9.05017C16.1778 8.96713 16.2836 8.91058 16.3988 8.88767C16.514 8.86476 16.6334 8.87652 16.7419 8.92146C16.8504 8.9664 16.9431 9.0425 17.0083 9.14015C17.0736 9.23779 17.1084 9.35258 17.1084 9.47002C17.1084 9.62749 17.0458 9.77851 16.9345 9.88986C16.8231 10.0012 16.6721 10.0638 16.5146 10.0638ZM13.0656 17.4856H6.90124L7.49499 16.2981H12.4718L13.0656 17.4856Z" fill="currentcolor"/>
<path d="M8.95306 2.82294C9.31905 2.63011 9.66434 2.40032 9.98351 2.13715C10.9897 2.97282 12.2397 3.45979 13.546 3.52505V4.71997C13.546 4.7987 13.5773 4.87422 13.633 4.92989C13.6886 4.98556 13.7642 5.01684 13.8429 5.01684C13.9216 5.01684 13.9971 4.98556 14.0528 4.92989C14.1085 4.87422 14.1398 4.7987 14.1398 4.71997V4.21825L15.6378 3.43539C15.8341 3.6525 16.1029 3.7905 16.3937 3.82348C16.6845 3.85646 16.9774 3.78214 17.2173 3.61448C17.4572 3.44683 17.6276 3.19736 17.6966 2.91293C17.7656 2.6285 17.7284 2.32866 17.592 2.06971C17.4556 1.81076 17.2294 1.61051 16.9558 1.50656C16.6822 1.4026 16.38 1.4021 16.1061 1.50514C15.8321 1.60817 15.6052 1.80767 15.4679 2.06616C15.3307 2.32465 15.2925 2.62437 15.3605 2.90903L14.1398 3.5482V3.23559C14.1398 3.15686 14.1085 3.08135 14.0528 3.02567C13.9971 2.97 13.9216 2.93872 13.8429 2.93872C12.5697 2.93788 11.337 2.49151 10.3585 1.677L10.1735 1.52292C10.1202 1.47849 10.0529 1.45416 9.98351 1.45416C9.91409 1.45416 9.84686 1.47849 9.79351 1.52292L9.60856 1.677C9.31954 1.91568 9.00666 2.12391 8.67489 2.29836C8.64044 2.31662 8.60994 2.34149 8.5851 2.37155C8.56027 2.40161 8.5416 2.43626 8.53016 2.47353C8.51872 2.5108 8.51473 2.54996 8.51842 2.58877C8.52212 2.62758 8.53342 2.66529 8.55169 2.69973C8.56995 2.73418 8.59482 2.76469 8.62488 2.78952C8.65493 2.81435 8.68959 2.83302 8.72686 2.84446C8.76413 2.8559 8.80329 2.85989 8.8421 2.8562C8.88091 2.8525 8.91862 2.8412 8.95306 2.82294ZM16.5148 2.04809C16.6322 2.04809 16.747 2.08292 16.8446 2.14816C16.9423 2.2134 17.0184 2.30613 17.0633 2.41462C17.1083 2.52312 17.12 2.6425 17.0971 2.75768C17.0742 2.87285 17.0176 2.97865 16.9346 3.06169C16.8516 3.14472 16.7458 3.20127 16.6306 3.22418C16.5154 3.24709 16.396 3.23534 16.2875 3.1904C16.1791 3.14546 16.0863 3.06935 16.0211 2.97171C15.9558 2.87407 15.921 2.75928 15.921 2.64184C15.921 2.48437 15.9836 2.33335 16.0949 2.222C16.2063 2.11065 16.3573 2.04809 16.5148 2.04809Z" fill="currentcolor"/>
<path d="M9.09277 8.5791H10.874C11.1102 8.5791 11.3368 8.48527 11.5038 8.31824C11.6708 8.15122 11.7646 7.92469 11.7646 7.68848V5.90723C11.7639 5.72368 11.7064 5.54485 11.6002 5.39521C11.4939 5.24556 11.3439 5.13241 11.1709 5.07123V4.12598C11.1709 3.88977 11.0771 3.66323 10.91 3.49621C10.743 3.32918 10.5165 3.23535 10.2803 3.23535H9.68652C9.45031 3.23535 9.22378 3.32918 9.05676 3.49621C8.88973 3.66323 8.7959 3.88977 8.7959 4.12598V5.07123C8.62285 5.13241 8.47293 5.24556 8.36664 5.39521C8.26036 5.54485 8.20291 5.72368 8.20215 5.90723V7.68848C8.20215 7.92469 8.29598 8.15122 8.46301 8.31824C8.63003 8.48527 8.85656 8.5791 9.09277 8.5791ZM9.38965 4.12598C9.38965 4.04724 9.42093 3.97173 9.4766 3.91605C9.53228 3.86038 9.60779 3.8291 9.68652 3.8291H10.2803C10.359 3.8291 10.4345 3.86038 10.4902 3.91605C10.5459 3.97173 10.5771 4.04724 10.5771 4.12598V5.0166H9.38965V4.12598ZM8.7959 5.90723C8.7959 5.82849 8.82718 5.75298 8.88285 5.6973C8.93853 5.64163 9.01404 5.61035 9.09277 5.61035H10.874C10.9528 5.61035 11.0283 5.64163 11.0839 5.6973C11.1396 5.75298 11.1709 5.82849 11.1709 5.90723V7.68848C11.1709 7.76721 11.1396 7.84272 11.0839 7.8984C11.0283 7.95407 10.9528 7.98535 10.874 7.98535H9.09277C9.01404 7.98535 8.93853 7.95407 8.88285 7.8984C8.82718 7.84272 8.7959 7.76721 8.7959 7.68848V5.90723Z" fill="currentcolor"/>
<path d="M9.9834 7.39209C10.0621 7.39209 10.1376 7.36081 10.1933 7.30514C10.249 7.24946 10.2803 7.17395 10.2803 7.09521V6.50146C10.2803 6.42273 10.249 6.34722 10.1933 6.29154C10.1376 6.23587 10.0621 6.20459 9.9834 6.20459C9.90466 6.20459 9.82915 6.23587 9.77348 6.29154C9.7178 6.34722 9.68652 6.42273 9.68652 6.50146V7.09521C9.68652 7.17395 9.7178 7.24946 9.77348 7.30514C9.82915 7.36081 9.90466 7.39209 9.9834 7.39209Z" fill="currentcolor"/>
<path d="M7.01472 14.8137C7.07519 14.8138 7.13423 14.7953 7.18394 14.7609C7.23365 14.7265 7.27166 14.6777 7.29289 14.6211L8.18352 12.2461C8.19716 12.2095 8.20348 12.1707 8.2021 12.1317C8.20073 12.0927 8.19169 12.0544 8.17551 12.0189C8.15933 11.9835 8.13632 11.9515 8.10779 11.9249C8.07926 11.8983 8.04578 11.8776 8.00925 11.864C7.97272 11.8503 7.93386 11.844 7.89489 11.8454C7.85592 11.8468 7.8176 11.8558 7.78212 11.872C7.74664 11.8882 7.7147 11.9112 7.68811 11.9397C7.66152 11.9682 7.64082 12.0017 7.62717 12.0383L7.01472 13.6714L6.40227 12.0386C6.37471 11.9648 6.31897 11.905 6.24732 11.8723C6.17566 11.8396 6.09396 11.8367 6.02019 11.8643C5.94641 11.8918 5.8866 11.9476 5.85392 12.0192C5.82124 12.0909 5.81836 12.1726 5.84592 12.2464L6.73655 14.6214C6.75782 14.6779 6.79585 14.7267 6.84556 14.761C6.89527 14.7954 6.95428 14.8138 7.01472 14.8137Z" fill="currentcolor"/>
<path d="M9.38965 14.5171V13.6265H10.2803C10.5165 13.6265 10.743 13.5326 10.91 13.3656C11.0771 13.1986 11.1709 12.972 11.1709 12.7358C11.1709 12.4996 11.0771 12.2731 10.91 12.1061C10.743 11.939 10.5165 11.8452 10.2803 11.8452H9.68652C9.45031 11.8452 9.22378 11.939 9.05676 12.1061C8.88973 12.2731 8.7959 12.4996 8.7959 12.7358V14.5171C8.7959 14.5958 8.82718 14.6713 8.88285 14.727C8.93853 14.7827 9.01404 14.814 9.09277 14.814C9.17151 14.814 9.24702 14.7827 9.3027 14.727C9.35837 14.6713 9.38965 14.5958 9.38965 14.5171ZM9.38965 12.7358C9.38965 12.6571 9.42093 12.5816 9.4766 12.5259C9.53228 12.4702 9.60779 12.439 9.68652 12.439H10.2803C10.359 12.439 10.4345 12.4702 10.4902 12.5259C10.5459 12.5816 10.5771 12.6571 10.5771 12.7358C10.5771 12.8146 10.5459 12.8901 10.4902 12.9458C10.4345 13.0014 10.359 13.0327 10.2803 13.0327H9.38965V12.7358Z" fill="currentcolor"/>
<path d="M12.3584 14.5171V13.0327L13.6053 14.6952C13.6329 14.7321 13.6688 14.762 13.71 14.7826C13.7512 14.8032 13.7967 14.814 13.8428 14.814C13.8746 14.8139 13.9063 14.8088 13.9366 14.7988C13.9957 14.7791 14.0472 14.7413 14.0836 14.6908C14.1201 14.6402 14.1397 14.5794 14.1396 14.5171V12.1421C14.1396 12.0634 14.1084 11.9878 14.0527 11.9322C13.997 11.8765 13.9215 11.8452 13.8428 11.8452C13.764 11.8452 13.6885 11.8765 13.6329 11.9322C13.5772 11.9878 13.5459 12.0634 13.5459 12.1421V13.6265L12.299 11.964C12.2616 11.9141 12.2095 11.8773 12.15 11.8587C12.0906 11.8401 12.0268 11.8407 11.9676 11.8604C11.9085 11.8802 11.8571 11.918 11.8207 11.9685C11.7843 12.0191 11.7646 12.0798 11.7646 12.1421V14.5171C11.7646 14.5958 11.7959 14.6713 11.8516 14.727C11.9073 14.7827 11.9828 14.814 12.0615 14.814C12.1403 14.814 12.2158 14.7827 12.2714 14.727C12.3271 14.6713 12.3584 14.5958 12.3584 14.5171Z" fill="currentcolor"/>
<path d="M16.5147 13.3296C16.5147 13.1534 16.4624 12.9812 16.3646 12.8348C16.2667 12.6883 16.1276 12.5742 15.9649 12.5068C15.8021 12.4394 15.623 12.4217 15.4503 12.4561C15.2775 12.4904 15.1188 12.5753 14.9943 12.6998C14.8697 12.8244 14.7849 12.9831 14.7505 13.1558C14.7161 13.3286 14.7338 13.5077 14.8012 13.6704C14.8686 13.8332 14.9828 13.9723 15.1292 14.0701C15.2757 14.168 15.4479 14.2202 15.624 14.2202C15.8602 14.2202 16.0868 14.1264 16.2538 13.9594C16.4208 13.7923 16.5147 13.5658 16.5147 13.3296ZM15.3271 13.3296C15.3271 13.2709 15.3446 13.2135 15.3772 13.1647C15.4098 13.1158 15.4562 13.0778 15.5104 13.0553C15.5647 13.0328 15.6244 13.027 15.6819 13.0384C15.7395 13.0499 15.7924 13.0782 15.8339 13.1197C15.8755 13.1612 15.9037 13.2141 15.9152 13.2717C15.9267 13.3293 15.9208 13.389 15.8983 13.4432C15.8758 13.4974 15.8378 13.5438 15.789 13.5764C15.7401 13.6091 15.6827 13.6265 15.624 13.6265C15.5453 13.6265 15.4698 13.5952 15.4141 13.5395C15.3584 13.4838 15.3271 13.4083 15.3271 13.3296Z" fill="currentcolor"/>
<path d="M5.2334 13.3296C5.2334 13.1534 5.18116 12.9812 5.0833 12.8348C4.98544 12.6883 4.84634 12.5742 4.6836 12.5068C4.52086 12.4394 4.34179 12.4217 4.16902 12.4561C3.99626 12.4904 3.83756 12.5753 3.71301 12.6998C3.58845 12.8244 3.50363 12.9831 3.46926 13.1558C3.4349 13.3286 3.45253 13.5077 3.51994 13.6704C3.58735 13.8332 3.70151 13.9723 3.84797 14.0701C3.99443 14.168 4.16662 14.2202 4.34277 14.2202C4.57898 14.2202 4.80552 14.1264 4.97254 13.9594C5.13956 13.7923 5.2334 13.5658 5.2334 13.3296ZM4.0459 13.3296C4.0459 13.2709 4.06331 13.2135 4.09593 13.1647C4.12855 13.1158 4.17492 13.0778 4.22916 13.0553C4.28341 13.0328 4.3431 13.027 4.40069 13.0384C4.45828 13.0499 4.51118 13.0782 4.5527 13.1197C4.59421 13.1612 4.62249 13.2141 4.63394 13.2717C4.6454 13.3293 4.63952 13.389 4.61705 13.4432C4.59458 13.4974 4.55653 13.5438 4.50771 13.5764C4.45889 13.6091 4.40149 13.6265 4.34277 13.6265C4.26404 13.6265 4.18853 13.5952 4.13285 13.5395C4.07718 13.4838 4.0459 13.4083 4.0459 13.3296Z" fill="currentcolor"/>
</g>
<defs>
<clipPath id="clip0_3466_1962">
<rect width="19" height="19" fill="currentcolor" transform="translate(0.483398 0.860352)"/>
</clipPath>
</defs>
</svg>
