<svg width="24" height="25" viewBox="0 0 24 25" fill="none" xmlns="http://www.w3.org/2000/svg">
<path d="M17.9997 18.1616V15.6616M17.9997 18.1616V20.6616M17.9997 18.1616H15.4997M17.9997 18.1616H20.4997M14.9997 14.2857C14.081 13.8843 13.0664 13.6616 11.9997 13.6616C8.5419 13.6616 5.63061 16.0016 4.76307 19.1845C4.4726 20.2502 5.39517 21.1616 6.49974 21.1616H12.9997M15.4997 7.16162C15.4997 9.09462 13.9327 10.6616 11.9997 10.6616C10.0667 10.6616 8.49974 9.09462 8.49974 7.16162C8.49974 5.22862 10.0667 3.66162 11.9997 3.66162C13.9327 3.66162 15.4997 5.22862 15.4997 7.16162Z" stroke="white" stroke-width="2" stroke-linecap="round"/>
</svg>
