<svg width="40" height="40" viewBox="0 0 40 40" fill="none" xmlns="http://www.w3.org/2000/svg">
<g clip-path="url(#clip0_3466_2011)">
<path d="M0.934746 0.755957C0.934746 0.755957 2.17362 2.02684 3.66465 0.503971L3.89488 0.942207L4.9693 0.996987L5.22146 1.19419L5.37495 0.788825L5.52843 0.810737L5.80252 1.18324L5.99986 0.953163L6.44936 0.975075L6.72345 1.27088L6.89886 1.09559L8.69687 1.15037L9.12445 0.898384L9.17926 1.15037L9.9796 1.24897L10.3085 0.79978C10.3085 0.79978 10.7799 1.47905 11.6351 1.52287C12.4902 1.57765 14.1896 1.46809 14.1896 1.46809C14.1896 1.46809 14.6939 1.93919 14.8693 1.46809C15.0447 0.996987 14.8693 1.17228 14.8693 1.17228L15.571 1.15037C15.571 1.15037 15.8012 1.27088 16.0205 0.295809L16.2726 0.821693L16.3932 0.273898L17.1716 0.350589C17.1716 0.350589 17.5225 0.624486 17.7746 0C17.7746 0 19.6823 0.79978 20.5045 0.0219115C20.5045 0.0219115 21.0308 0.471104 21.9078 0.394412C22.7849 0.317721 24.2102 1.07368 24.2321 2.19118C24.2321 2.19118 24.561 1.91728 25.8876 1.93919C25.8656 1.7639 26.6112 1.16133 25.8876 0.690221C25.8876 0.690221 26.4906 0.142427 33.5291 0.887428C33.5291 0.887428 33.9019 0.865516 33.6058 0.361544C33.3098 -0.142427 34.0773 0.0876471 33.9019 0.0657352C33.9019 0.0657352 34.1321 1.62147 34.9763 0.66831C34.9763 0.66831 36.9278 1.59956 36.9497 0.745001L37.3224 0.975075L38.3969 0.996987C38.3969 0.996987 38.2763 1.52287 39.5042 1.77486C39.5042 1.77486 39.9537 3.8017 39.3507 4.13037C39.3507 4.13037 40.1072 7.71295 39.5809 13.9688L38.4298 13.9907L38.8793 15.1411C38.8793 15.1411 37.7281 15.4916 38.353 16.5872C38.353 16.5872 38.956 16.3353 38.5284 16.7625C38.5284 16.7625 38.4298 17.2117 39.0766 17.3432C39.0766 17.3432 38.7038 18.8989 39.4823 18.8442C39.4823 18.8442 38.8793 20.2465 39.3288 20.5752C39.3288 20.5752 38.9779 21.2216 39.0985 22.372C39.0985 22.372 38.9231 22.5692 38.5942 22.2953C38.5942 22.2953 37.9474 22.8759 39.6467 22.7006L39.8002 38.8935C39.8002 38.8935 36.5989 37.0419 35.371 38.269L36.8729 38.3895L36.7743 38.5867L36.1274 38.6086C36.1274 38.6086 36.1494 39.3317 35.656 38.6634C35.656 38.6634 34.45 39.7918 32.2244 38.6853C32.2244 38.6853 31.15 39.1345 30.2729 38.4552C30.2729 38.4552 29.67 38.3347 29.5494 38.9263C29.5494 38.9263 28.5955 38.751 27.269 39.1564L27.3676 38.8058H27.1922L27.1703 39.2331C27.1703 39.2331 26.9729 39.4084 26.6989 39.3098L26.8743 38.7072C26.8743 38.7072 26.4686 38.5867 26.3261 38.9592L26.655 38.8825L26.5563 39.3098C26.5563 39.3098 25.7779 40.0876 24.8241 39.4632L25.7999 39.3865C25.7999 39.3865 25.9753 39.266 25.9534 39.0907C25.9534 39.0907 22.1271 39.0359 22.2477 39.3426L22.5437 39.5727C22.5437 39.5727 21.272 40.0438 20.6909 39.6494L20.669 39.2769L20.4716 39.2988L20.1427 39.7699C20.1427 39.7699 19.5945 38.7948 17.8842 39.3426L18.0048 39.7699C18.0048 39.7699 17.4019 39.7151 17.1826 40L16.2288 38.4443C16.2288 38.4443 14.8254 39.0907 14.1238 38.3457C14.1238 38.3457 14.0032 38.3676 13.9484 38.7182C13.9484 38.7182 13.3673 38.6962 13.0932 37.8198C13.0932 37.8198 12.6437 37.9403 12.8191 38.7182C12.8191 38.7182 12.3477 38.1923 12.3148 37.8965L11.964 38.269L12.2161 38.5648L12.0955 38.7182C12.0955 38.7182 11.5693 38.1704 11.3391 38.2909L11.361 38.6196L11.1308 38.6962L10.8347 38.2471C10.8347 38.2471 10.5058 38.4223 10.4839 38.6743L10.3633 38.499L10.1879 38.6196H9.95767C9.95767 38.6196 9.88093 38.1156 9.76033 38.0389L9.63973 38.3676H9.19023V38.0718L8.76265 38.3676C8.76265 38.3676 8.25833 38.2909 8.15966 38.7729L7.88558 38.6524C7.88558 38.6524 7.94039 38.1265 7.73209 37.8965C7.73209 37.8965 7.458 37.776 7.40318 38.4224C7.40318 38.4224 7.07428 38.5429 6.97561 38.0718H6.74538L6.80019 38.6962C6.80019 38.6962 6.6796 38.2471 5.64903 38.3676C5.64903 38.3676 4.47594 38.4443 4.32245 38.0389L4.22378 38.6634C4.22378 38.6634 4.14704 38.1156 3.05069 38.6086L2.79853 38.5867L2.82046 38.258H2.66697L2.5683 38.8058L2.31614 38.751C2.31614 38.751 2.5683 38.3237 2.29421 38.2251C2.29421 38.2251 1.88857 38.3237 1.84471 38.7291L1.59255 38.6086L1.61448 38.0608L0.463318 37.8855C0.463318 37.8855 1.2198 36.5379 0.66066 32.0789C0.66066 32.0789 0.682587 30.5231 0.934746 30.1287L1.53774 30.1068L1.71315 25.8559L0.934746 25.7354C0.934746 25.7354 0.583916 24.1578 0.781258 20.6081C0.781258 20.6081 0.901856 20.5314 1.25269 20.8381L1.35136 20.6628L1.00053 20.4656L1.02245 20.0931L1.70219 20.4656L1.75701 18.9647C1.75701 18.9647 0.37561 18.3402 1.25269 16.1161C1.25269 16.1161 0.0247797 12.2597 0.879929 3.27582L0.649697 3.1553C0.649697 3.1553 0.572953 3.75787 0.200195 3.17721L0.276939 1.15037L0.726441 1.20515L0.671623 1.35853L0.496208 1.41331L0.572952 2.34456L0.726441 2.36647L0.934746 0.755957Z" fill="url(#paint0_linear_3466_2011)"/>
<path d="M5 8.11151L14.5395 18.2958C14.5395 18.2958 15.2574 18.1978 15.4859 18.7636C15.7143 19.3403 15.3336 18.8398 15.3336 18.8398L15.0399 18.6113L18.8905 22.7895C18.8905 22.7895 18.4228 21.4947 19.0428 22.6698C19.6628 23.834 20.6526 24.6827 20.6526 24.6827L20.8049 24.4542L20.2284 23.8122C20.2284 23.8122 19.8042 23.3117 20.4025 23.6381L21.153 24.6065C21.153 24.6065 20.979 25.1506 21.5555 25.6293L21.4358 25.2267C21.4358 25.2267 21.9362 25.4987 22.3604 26.3474L22.3386 26.021L22.7629 26.4236L22.5888 26.6521L26.5591 30.9064C26.5591 30.9064 27.4837 33.0934 32.4438 32.767C32.4438 32.767 34.8042 29.7639 35 25.2594L31.715 23.0506L29.8006 22.8765L29.8223 22.5501L30.5402 22.8439L30.7904 22.8656L30.3662 22.5174L30.562 22.2889L14.7897 11.5498C14.7897 11.5498 13.7999 11.6042 13.8434 10.9514L13.4409 10.9296L13.2125 10.7011L12.984 10.8752L12.8644 10.7555L13.0167 10.5052L12.4075 10.1788L12.7012 10.5488L12.5489 10.6249L11.9072 9.98298L12.0595 9.80889L9.12255 7.74157C9.12255 7.74157 7.78463 6.30533 5 8.11151Z" fill="white"/>
<path d="M7.95433 24L15.8004 31.7304L10.2432 33.548L9.90209 33.3348C9.90209 33.3348 9.79204 33.8173 9.28585 33.4807C9.28585 33.4807 9.49493 33.8509 9.72602 33.2114C9.72602 33.2114 9.63798 33.0095 9.51694 33.2114L9.4289 33.4021L9.40689 33.0319L9.1758 33.189L8.99973 33.1665L8.96672 33.5031L5.64342 30.9899C5.64342 30.9899 5.17024 30.8104 5.54439 29.6435C5.91853 28.4655 7.95433 24 7.95433 24Z" fill="white"/>
<path d="M31.4162 14.3788L32.2003 9.37946L31.9747 9.39012L31.9962 9.58199C31.9962 9.58199 31.8995 10.0084 31.8028 9.63529C31.7062 9.26221 31.921 9.14495 31.921 9.14495L32.1788 9.21957L32.1896 9.05968L30.4816 7.82317C30.4816 7.82317 29.8801 7.37547 28.6878 7.74856C27.4954 8.12164 23.8003 9.04902 23.8003 9.04902L30.2453 13.9524L30.3312 13.7818L30.0197 13.6326C30.0197 13.6326 29.8156 13.3768 30.2023 13.3874C30.5998 13.3981 30.4924 14.1336 30.4924 14.1336H30.8576L31.0617 14.4001L31.4162 14.3788Z" fill="white"/>
</g>
<defs>
<linearGradient id="paint0_linear_3466_2011" x1="20.1816" y1="-0.0556073" x2="19.8539" y2="40.0783" gradientUnits="userSpaceOnUse">
<stop stop-color="#BB3119"/>
<stop offset="1" stop-color="#812112"/>
</linearGradient>
<clipPath id="clip0_3466_2011">
<rect width="40" height="40" fill="white"/>
</clipPath>
</defs>
</svg>
