<?xml version="1.0" encoding="utf-8"?><svg viewBox="0 0 74 74" xmlns="http://www.w3.org/2000/svg" xmlns:xlink="http://www.w3.org/1999/xlink"><style>:root>svg{display:none}:root>svg:target{display:block}</style><svg fill="none" viewBox="0 0 74 74" id="balance" xmlns="http://www.w3.org/2000/svg"><path d="M55.553 7.846c-4.392 4.391-11.511 4.391-15.903 0M7.846 55.552c4.391-4.39 4.391-11.51 0-15.902m58.308-21.203c-4.391 4.392-4.391 11.511 0 15.903M18.448 66.154c4.39-4.391 11.51-4.391 15.902 0M5.196 42.301 42.3 5.196a7.496 7.496 0 0 1 10.601 0l15.903 15.902a7.497 7.497 0 0 1 0 10.601L31.699 68.805a7.497 7.497 0 0 1-10.601 0L5.196 52.902a7.496 7.496 0 0 1 0-10.601ZM42.3 31.699a7.497 7.497 0 1 1-10.602 10.602A7.497 7.497 0 0 1 42.3 31.699Z" stroke="#fff" stroke-opacity=".2" stroke-width="5" stroke-linecap="round"/></svg><svg fill="none" viewBox="0 0 21 21" id="clock" xmlns="http://www.w3.org/2000/svg"><path d="M10.5 4.5v5a1 1 0 0 0 1 1h5m-6 9.5a9.5 9.5 0 1 1 0-19 9.5 9.5 0 0 1 0 19Z" stroke="currentColor" stroke-width="1.5" stroke-linecap="round"/></svg><svg fill="none" viewBox="0 0 14 14" id="close" xmlns="http://www.w3.org/2000/svg"><path d="m1 13 6-6m0 0 6-6M7 7l6 6M7 7 1 1" stroke="currentColor" stroke-width="2" stroke-linecap="round"/></svg><svg fill="none" viewBox="0 0 40 40" id="discord" xmlns="http://www.w3.org/2000/svg"><rect width="40" height="40" rx="5" fill="currentColor"/><path d="M27.293 13.444c2.357 3.49 3.52 7.426 3.085 11.958a.068.068 0 0 1-.027.049 17.203 17.203 0 0 1-5.22 2.652.066.066 0 0 1-.073-.025 14.033 14.033 0 0 1-1.065-1.745.067.067 0 0 1 .036-.094 10.625 10.625 0 0 0 1.628-.78.068.068 0 0 0 .006-.112c-.11-.082-.22-.169-.324-.256a.063.063 0 0 0-.068-.008c-3.376 1.57-7.073 1.57-10.489 0a.065.065 0 0 0-.067.01 8.925 8.925 0 0 1-.323.254.068.068 0 0 0 .006.112c.52.3 1.06.564 1.628.781a.067.067 0 0 1 .036.093 12.49 12.49 0 0 1-1.066 1.745.068.068 0 0 1-.073.025 17.26 17.26 0 0 1-5.211-2.652.072.072 0 0 1-.027-.05c-.364-3.92.377-7.889 3.083-11.958a.061.061 0 0 1 .028-.024 17.082 17.082 0 0 1 4.248-1.327.067.067 0 0 1 .068.033c.184.328.395.75.537 1.094a15.787 15.787 0 0 1 4.771 0c.143-.337.346-.766.53-1.094a.065.065 0 0 1 .068-.033c1.491.26 2.917.712 4.247 1.327a.053.053 0 0 1 .027.025Zm-8.845 7.453c.017-1.159-.823-2.118-1.876-2.118-1.044 0-1.875.95-1.875 2.118 0 1.167.847 2.118 1.875 2.118 1.045 0 1.876-.95 1.876-2.118Zm6.934 0c.017-1.159-.822-2.118-1.875-2.118-1.045 0-1.876.95-1.876 2.118 0 1.167.848 2.118 1.876 2.118 1.053 0 1.875-.95 1.875-2.118Z" fill="#fff"/></svg><svg fill="none" viewBox="0 0 74 74" id="discount" xmlns="http://www.w3.org/2000/svg"><path d="M28.786 26.48a2.094 2.094 0 0 1-2.084 2.103 2.094 2.094 0 0 1-2.083-2.104c0-1.162.933-2.104 2.084-2.104 1.15 0 2.083.942 2.083 2.104ZM49.619 47.52a2.094 2.094 0 0 1-2.084 2.105 2.094 2.094 0 0 1-2.083-2.104c0-1.162.933-2.105 2.084-2.105 1.15 0 2.083.943 2.083 2.105Z" stroke="#fff" stroke-opacity=".3" stroke-width="5" stroke-linecap="round"/><path d="M41.529 4.573c.865-.563 1.297-.844 1.648-1.027 4.433-2.315 9.873-.202 11.628 4.516.14.374.274.875.543 1.878.124.463.186.694.256.908a8.374 8.374 0 0 0 5.43 5.402c.212.067.442.126.902.245l.625.16c2.163.557 3.244.836 4.033 1.231 3.59 1.798 5.405 5.921 4.32 9.817-.237.857-.757 1.854-1.797 3.849l-.3.576a18.81 18.81 0 0 0-.425.84 8.49 8.49 0 0 0 .332 7.692c.11.194.238.396.495.8.557.873.836 1.31 1.017 1.664 2.292 4.478.2 9.972-4.472 11.745-.37.14-.866.276-1.859.548-.458.125-.688.188-.898.258a8.377 8.377 0 0 0-5.35 5.485c-.065.214-.124.446-.241.911l-.16.63c-.551 2.185-.827 3.277-1.218 4.075-1.78 3.625-5.863 5.458-9.72 4.364-.849-.241-1.836-.766-3.81-1.817l-.571-.303c-.42-.224-.63-.335-.832-.429a8.26 8.26 0 0 0-7.615.335 18.96 18.96 0 0 0-.792.501c-.865.562-1.298.843-1.649 1.027-4.433 2.315-9.873.202-11.628-4.517-.139-.373-.273-.874-.542-1.877-.125-.464-.187-.695-.256-.908a8.373 8.373 0 0 0-5.43-5.402 18.403 18.403 0 0 0-.902-.245l-.625-.16c-2.163-.558-3.244-.836-4.034-1.231-3.59-1.798-5.404-5.921-4.32-9.817.238-.857.758-1.855 1.798-3.849l.3-.577c.221-.424.332-.636.425-.84a8.491 8.491 0 0 0-.332-7.691c-.11-.195-.239-.397-.496-.8-.557-.873-.835-1.31-1.016-1.665-2.293-4.477-.2-9.971 4.471-11.744.37-.14.866-.276 1.86-.548.458-.126.687-.188.898-.258a8.377 8.377 0 0 0 5.349-5.485c.066-.214.125-.446.242-.911l.16-.631c.55-2.184.826-3.277 1.218-4.074 1.78-3.626 5.862-5.458 9.72-4.364.848.241 1.835.766 3.81 1.816l.57.304c.42.223.631.335.833.429a8.26 8.26 0 0 0 7.615-.336c.192-.111.392-.24.792-.5ZM26.702 47.52 47.535 26.48" stroke="#fff" stroke-opacity=".3" stroke-width="5" stroke-linecap="round"/></svg><svg fill="none" viewBox="0 0 40 40" id="facebook" xmlns="http://www.w3.org/2000/svg"><rect width="40" height="40" rx="5" fill="currentColor"/><path d="m24.894 21.302.57-3.62h-3.51v-2.354c0-.99.49-1.958 2.057-1.958h1.618v-3.084a19.61 19.61 0 0 0-2.85-.243c-2.889 0-4.775 1.737-4.775 4.877v2.761H14.8v3.621h3.203v8.759h3.95v-8.759h2.94Z" fill="#fff"/></svg><svg fill="none" viewBox="0 0 11 14" id="fire" xmlns="http://www.w3.org/2000/svg"><path d="M7.732 12.512c.466-.648.375-2.966-.346-4.395-.243-.482-.901-.253-1.129.236-.663 1.428-2.354 3.106-3.439 3.76M1.01 9.065C1.104 11.03 3.066 13 5.601 13c2.536 0 4.59-1.967 4.59-3.935 0-1.794-.655-1.803-1.639-3.28-.636-.954-.174-2.733.23-3.87.17-.474-.202-.996-.697-.904-2.962.546-4.383 2.322-4.288 5.45.01.358-.51.542-.7.239l-.545-.87c-.257-.411-.852-.405-1.036.044-.366.89-.565 1.943-.506 3.191Z" stroke="currentColor" stroke-width="1.5" stroke-linecap="round"/></svg><svg fill="none" viewBox="0 0 40 40" id="google" xmlns="http://www.w3.org/2000/svg"><rect width="40" height="40" rx="5" fill="currentColor"/><path fill-rule="evenodd" clip-rule="evenodd" d="M31.76 20.273c0-.851-.076-1.67-.218-2.455H20.24v4.642h6.458a5.52 5.52 0 0 1-2.394 3.622v3.01h3.878c2.27-2.088 3.578-5.165 3.578-8.82Z" fill="#4285F4"/><path fill-rule="evenodd" clip-rule="evenodd" d="M20.24 32c3.24 0 5.957-1.075 7.942-2.907l-3.878-3.011c-1.075.72-2.45 1.145-4.064 1.145-3.125 0-5.77-2.11-6.714-4.947h-4.01v3.109a11.995 11.995 0 0 0 10.724 6.61Z" fill="#34A853"/><path fill-rule="evenodd" clip-rule="evenodd" d="M13.526 22.28a7.213 7.213 0 0 1-.377-2.28c0-.791.137-1.56.377-2.28v-3.11h-4.01A11.995 11.995 0 0 0 8.24 20c0 1.936.464 3.769 1.277 5.389l4.009-3.11Z" fill="#FBBC05"/><path fill-rule="evenodd" clip-rule="evenodd" d="M20.24 12.773c1.762 0 3.344.605 4.588 1.794l3.441-3.441C26.191 9.189 23.475 8 20.24 8c-4.69 0-8.749 2.69-10.723 6.61l4.009 3.11c.943-2.836 3.589-4.947 6.714-4.947Z" fill="#EA4335"/></svg><svg fill="none" viewBox="0 0 20 20" id="guard" xmlns="http://www.w3.org/2000/svg"><g clip-path="url(#ia)" fill="currentcolor"><path d="M17.256 7.477a.278.278 0 0 0 .278-.278V4.51a1.03 1.03 0 0 0-.976-1.03c-3.3-.168-5.075-1.518-5.838-2.308A1.016 1.016 0 0 0 9.983.86c-.28 0-.542.111-.736.312-.764.79-2.538 2.14-5.839 2.308a1.03 1.03 0 0 0-.975 1.03v7.76a6.293 6.293 0 0 0 3.138 5.435l3.149 1.818a2.526 2.526 0 0 0 2.527 0l3.149-1.818a6.294 6.294 0 0 0 3.138-5.435V8.498a.278.278 0 1 0-.557 0v3.772a5.735 5.735 0 0 1-2.86 4.953l-3.149 1.818a1.975 1.975 0 0 1-1.97 0l-3.149-1.818a5.735 5.735 0 0 1-2.86-4.953V4.51c0-.253.197-.461.448-.474 3.491-.178 5.39-1.628 6.21-2.477a.463.463 0 0 1 .336-.142c.128 0 .248.05.336.142.821.849 2.72 2.299 6.21 2.477.252.013.448.22.448.474v2.689c0 .153.125.278.279.278Z"/><path d="M4.21 8.219a.278.278 0 0 0-.278.278v3.773c0 1.7.915 3.286 2.388 4.136l3.15 1.818a1.03 1.03 0 0 0 1.027 0l3.149-1.818a4.79 4.79 0 0 0 2.388-4.136V5.536a.653.653 0 0 0-.57-.648c-2.497-.314-4.139-1.263-5.077-2.003a.651.651 0 0 0-.808 0c-.938.74-2.58 1.689-5.076 2.003a.653.653 0 0 0-.57.648v1.662a.278.278 0 1 0 .556 0V5.536c0-.049.035-.09.083-.096 2.623-.33 4.358-1.334 5.352-2.118a.096.096 0 0 1 .118 0c.994.784 2.729 1.788 5.353 2.118a.096.096 0 0 1 .082.096v6.734a4.232 4.232 0 0 1-2.11 3.654l-3.148 1.818a.478.478 0 0 1-.472 0L6.6 15.924a4.232 4.232 0 0 1-2.11-3.654V8.497a.278.278 0 0 0-.279-.278Z"/><path d="M6.61 9.707a.84.84 0 0 1 .598.248l1.454 1.454a.278.278 0 0 0 .394 0l1.593-1.593a.279.279 0 0 0-.394-.394L8.86 10.82 7.601 9.56a1.393 1.393 0 0 0-.991-.41c-.375 0-.727.146-.992.41a1.394 1.394 0 0 0-.411.993c0 .374.146.727.41.992l2.25 2.249c.264.265.617.411.992.411s.727-.146.992-.411l4.498-4.499c.265-.265.411-.617.411-.992 0-.374-.146-.727-.41-.992a1.393 1.393 0 0 0-.993-.41c-.374 0-.727.145-.991.41l-1.192 1.192a.278.278 0 0 0 .394.393l1.191-1.191a.84.84 0 0 1 .598-.248.84.84 0 0 1 .599.248.84.84 0 0 1 .248.598.84.84 0 0 1-.248.599l-4.5 4.498a.84.84 0 0 1-.597.248.84.84 0 0 1-.598-.248l-2.25-2.25a.84.84 0 0 1-.248-.597c0-.226.088-.439.248-.599a.84.84 0 0 1 .598-.248Z"/></g><defs><clipPath id="ia"><path fill="currentcolor" transform="translate(.483 .86)" d="M0 0h19v19H0z"/></clipPath></defs></svg><svg fill="none" viewBox="0 0 2 12" id="info" xmlns="http://www.w3.org/2000/svg"><path d="M1.876 11.5H.11V3.528h1.767V11.5ZM0 1.458C0 1.183.085.954.255.773.429.59.676.5.996.5s.568.09.742.273A.95.95 0 0 1 2 1.458a.94.94 0 0 1-.262.678c-.174.176-.422.265-.742.265S.43 2.312.255 2.136A.955.955 0 0 1 0 1.458Z" fill="currentColor"/></svg><svg fill="none" viewBox="0 0 20 18" id="like" xmlns="http://www.w3.org/2000/svg"><path d="M4.5 8.064H2a1 1 0 0 0-1 1v5a1 1 0 0 0 1 1h3m13.448-5.809-2.166 5.874a1.993 1.993 0 0 1-2.05 1.298c-1.966-.179-5.437-.5-7.97-.768A1.974 1.974 0 0 1 4.5 13.69V8.617a2 2 0 0 1 .617-1.445l5.036-4.823c.07-.067.133-.14.198-.21a1.816 1.816 0 0 1 2.145-.379c.77.389 1.139 1.26.874 2.063l-1.276 2.675a.5.5 0 0 0 .451.715h4.268c.52 0 1.01.233 1.331.632.32.4.433.92.304 1.41Z" stroke="currentColor" stroke-width="2" stroke-linecap="round"/></svg><svg fill="none" viewBox="0 0 20 20" id="money" xmlns="http://www.w3.org/2000/svg"><g clip-path="url(#la)" fill="currentcolor"><path d="M10.231 11.23a.297.297 0 0 0-.107-.004.709.709 0 0 1-.626-.703.312.312 0 0 0-.623 0c0 .6.402 1.125.98 1.284v.312a.312.312 0 0 0 .623 0v-.293a1.33 1.33 0 0 0-.272-2.633.708.708 0 1 1 .707-.708.312.312 0 1 0 .623 0c0-.63-.442-1.173-1.058-1.303V6.9a.312.312 0 0 0-.623 0V7.2a1.33 1.33 0 0 0 .35 2.615.707.707 0 0 1 .026 1.414Z"/><path d="M5.687 9.528a4.52 4.52 0 1 0 9.038 0 4.52 4.52 0 0 0-9.038 0Zm4.519-3.896a3.896 3.896 0 1 1 0 7.792 3.896 3.896 0 0 1 0-7.792Z"/><path d="m16.261 14.816-2.441 1.153a1.989 1.989 0 0 0-1.695-1.046l-2.254-.062c-.357-.01-.707-.1-1.024-.264l-.23-.119a4.045 4.045 0 0 0-3.746.004l.014-.52a.312.312 0 0 0-.303-.32l-2.471-.068a.312.312 0 0 0-.32.303L1.64 19.3a.312.312 0 0 0 .303.32l2.472.069h.008a.312.312 0 0 0 .312-.303l.007-.26.642-.344c.252-.135.547-.168.822-.09l3.834 1.076a4.107 4.107 0 0 0 .863.092c.6 0 1.192-.128 1.737-.379a.292.292 0 0 0 .038-.021l5.56-3.596a.312.312 0 0 0 .101-.415 1.574 1.574 0 0 0-2.079-.633Zm-13.988 4.19.132-4.8 1.848.05-.132 4.801-1.848-.05Zm10.087-.081a3.534 3.534 0 0 1-2.161.24l-3.824-1.072a1.724 1.724 0 0 0-1.284.14l-.328.176.087-3.192a3.426 3.426 0 0 1 3.48-.185l.23.118c.4.207.843.322 1.294.335l2.254.062c.633.018 1.17.468 1.299 1.089l-3.357-.093a.312.312 0 0 0-.018.623l3.705.102h.009a.312.312 0 0 0 .311-.303 1.978 1.978 0 0 0-.03-.404l2.504-1.183.008-.004a.952.952 0 0 1 1.076.15l-5.255 3.4ZM10.517 4.133V1.172a.312.312 0 0 0-.623 0v2.96a.312.312 0 0 0 .623 0ZM12.855 4.133V2.73a.312.312 0 0 0-.624 0v1.403a.312.312 0 0 0 .624 0ZM8.18 4.133V2.73a.312.312 0 0 0-.623 0v1.403a.312.312 0 0 0 .623 0Z"/></g><defs><clipPath id="la"><path fill="currentcolor" transform="translate(.483 .86)" d="M0 0h19v19H0z"/></clipPath></defs></svg><svg fill="none" viewBox="0 0 17 8" id="more" xmlns="http://www.w3.org/2000/svg"><path d="M1 3.36a.5.5 0 0 0 0 1v-1Zm15.354.854a.5.5 0 0 0 0-.707L13.172.325a.5.5 0 1 0-.708.707l2.829 2.828-2.829 2.829a.5.5 0 1 0 .708.707l3.182-3.182ZM1 4.36h15v-1H1v1Z" fill="currentColor"/></svg><svg fill="none" viewBox="0 0 12 12" id="percent" xmlns="http://www.w3.org/2000/svg"><path d="M2.667 1.833a.833.833 0 1 1-1.667 0 .833.833 0 0 1 1.667 0ZM11 10.167a.833.833 0 1 1-1.667 0 .833.833 0 0 1 1.667 0ZM1.833 10.167l8.334-8.334" stroke="currentcolor" stroke-width="2" stroke-linecap="round"/></svg><svg fill="none" viewBox="0 0 22 66" id="ranks-arrow" xmlns="http://www.w3.org/2000/svg"><path d="M.29.559h15.595l5.825 7.34-5.825 7.34H.29l5.825-7.34L.29.559Z" fill="url(#oa)"/><path d="M.29 25.559h15.595l5.825 7.34-5.825 7.34H.29l5.825-7.34-5.825-7.34Z" fill="url(#ob)"/><path d="M.29 50.559h15.595l5.825 7.34-5.825 7.34H.29l5.825-7.34-5.825-7.34Z" fill="url(#oc)"/><defs><linearGradient id="oa" x1="11" y1=".559" x2="11" y2="15.238" gradientUnits="userSpaceOnUse"><stop stop-color="#A42502"/><stop offset="1" stop-color="#EC5400"/></linearGradient><linearGradient id="ob" x1="11" y1="25.559" x2="11" y2="40.238" gradientUnits="userSpaceOnUse"><stop stop-color="#A42502"/><stop offset="1" stop-color="#EC5400"/></linearGradient><linearGradient id="oc" x1="11" y1="50.559" x2="11" y2="65.238" gradientUnits="userSpaceOnUse"><stop stop-color="#A42502"/><stop offset="1" stop-color="#EC5400"/></linearGradient></defs></svg><svg fill="none" viewBox="0 0 17 22" id="remove" xmlns="http://www.w3.org/2000/svg"><path d="M14.5 6.5h.5a1 1 0 0 0 1-1V5a1 1 0 0 0-1-1h-3m2.5 2.5v12a2 2 0 0 1-2 2h-8a2 2 0 0 1-2-2v-12m12 0h-12M12 4v-.5a2 2 0 0 0-2-2H7a2 2 0 0 0-2 2V4m7 0H5M2.5 6.5H2a1 1 0 0 1-1-1V5a1 1 0 0 1 1-1h3m1.5 6v7m4-7v7" stroke="currentColor" stroke-width="2" stroke-linecap="round"/></svg><svg fill="none" viewBox="0 0 17 13" id="sorting" xmlns="http://www.w3.org/2000/svg"><path d="M15.5 1.36h-14m10 5h-10m7 5h-7" stroke="currentColor" stroke-width="1.5" stroke-linecap="round"/></svg><svg fill="none" viewBox="0 0 17 21" id="ssl" xmlns="http://www.w3.org/2000/svg"><path d="M15.707 3.372 9.179.553a2.373 2.373 0 0 0-1.874 0L.776 3.372C.305 3.576 0 4.032 0 4.537v4.287a12.356 12.356 0 0 0 2.627 7.607.293.293 0 0 0 .46-.362 11.767 11.767 0 0 1-2.5-7.244V4.537c0-.27.165-.516.422-.627l6.528-2.819a1.784 1.784 0 0 1 1.41 0l6.528 2.82c.256.11.422.356.422.626v1.644a.293.293 0 1 0 .586 0V4.537c0-.504-.304-.961-.776-1.165Z" fill="currentcolor"/><path d="M15.707 3.372 9.179.553a2.373 2.373 0 0 0-1.874 0L.776 3.372C.305 3.576 0 4.032 0 4.537v4.287a12.356 12.356 0 0 0 2.627 7.607.293.293 0 0 0 .46-.362 11.767 11.767 0 0 1-2.5-7.244V4.537c0-.27.165-.516.422-.627l6.528-2.819a1.784 1.784 0 0 1 1.41 0l6.528 2.82c.256.11.422.356.422.626v1.644a.293.293 0 1 0 .586 0V4.537c0-.504-.304-.961-.776-1.165Z" stroke="currentcolor"/><path d="M16.19 7.265a.293.293 0 0 0-.293.293v1.267A11.662 11.662 0 0 1 9.56 19.239l-.877.433a1.002 1.002 0 0 1-.883 0l-.876-.433A11.67 11.67 0 0 1 3.97 17.07a.293.293 0 1 0-.417.412 12.255 12.255 0 0 0 3.103 2.279l.005.002.878.434a1.584 1.584 0 0 0 1.403 0l.879-.434.004-.002a12.3 12.3 0 0 0 6.657-10.936V7.558a.293.293 0 0 0-.293-.293Z" fill="currentcolor"/><path d="M16.19 7.265a.293.293 0 0 0-.293.293v1.267A11.662 11.662 0 0 1 9.56 19.239l-.877.433a1.002 1.002 0 0 1-.883 0l-.876-.433A11.67 11.67 0 0 1 3.97 17.07a.293.293 0 1 0-.417.412 12.255 12.255 0 0 0 3.103 2.279l.005.002.878.434a1.584 1.584 0 0 0 1.403 0l.879-.434.004-.002a12.3 12.3 0 0 0 6.657-10.936V7.558a.293.293 0 0 0-.293-.293Z" stroke="currentcolor"/><path d="m3.965 3.697-2.225.961a.293.293 0 0 0-.177.27v3.897a10.736 10.736 0 0 0 5.8 9.54c.057.025.134.065.22.11.22.115.496.26.659.246.161.015.44-.131.66-.246.086-.045.163-.086.22-.11.779-.402 1.508-.9 2.165-1.481a.293.293 0 0 0-.387-.44 10.135 10.135 0 0 1-2.046 1.4l-.569.281a.098.098 0 0 1-.087 0l-.569-.281a10.151 10.151 0 0 1-5.48-9.018V5.12l2.048-.885a.293.293 0 1 0-.232-.538Z" fill="currentcolor"/><path d="m3.965 3.697-2.225.961a.293.293 0 0 0-.177.27v3.897a10.736 10.736 0 0 0 5.8 9.54c.057.025.134.065.22.11.22.115.496.26.659.246.161.015.44-.131.66-.246.086-.045.163-.086.22-.11.779-.402 1.508-.9 2.165-1.481a.293.293 0 0 0-.387-.44 10.135 10.135 0 0 1-2.046 1.4l-.569.281a.098.098 0 0 1-.087 0l-.569-.281a10.151 10.151 0 0 1-5.48-9.018V5.12l2.048-.885a.293.293 0 1 0-.232-.538Z" stroke="currentcolor"/><path d="M11.866 15.915a.293.293 0 0 0 .413-.029 10.737 10.737 0 0 0 2.641-7.062V4.929a.293.293 0 0 0-.176-.27L8.56 1.988a.798.798 0 0 0-.636 0L5.26 3.138a.293.293 0 0 0 .232.539l2.666-1.151a.214.214 0 0 1 .169 0l6.008 2.594v3.705a10.153 10.153 0 0 1-2.498 6.676.293.293 0 0 0 .029.414Z" fill="currentcolor"/><path d="M11.866 15.915a.293.293 0 0 0 .413-.029 10.737 10.737 0 0 0 2.641-7.062V4.929a.293.293 0 0 0-.176-.27L8.56 1.988a.798.798 0 0 0-.636 0L5.26 3.138a.293.293 0 0 0 .232.539l2.666-1.151a.214.214 0 0 1 .169 0l6.008 2.594v3.705a10.153 10.153 0 0 1-2.498 6.676.293.293 0 0 0 .029.414Z" stroke="currentcolor"/><path d="M11.274 6.572a.293.293 0 0 0-.293.293v3.672c0 .143.103.265.244.29.02.003.043.007.443.007.195 0 .479-.001.895-.004a.293.293 0 0 0-.001-.586h-.002c-.295.002-.717.003-.992.003V6.865a.293.293 0 0 0-.293-.293Z" fill="currentcolor"/><path d="M11.274 6.572a.293.293 0 0 0-.293.293v3.672c0 .143.103.265.244.29.02.003.043.007.443.007.195 0 .479-.001.895-.004a.293.293 0 0 0-.001-.586h-.002c-.295.002-.717.003-.992.003V6.865a.293.293 0 0 0-.293-.293Z" stroke="currentcolor"/><path d="M8.879 10.248c-.411 0-.81-.168-1.064-.449a.293.293 0 1 0-.434.394c.364.401.924.64 1.498.64.683 0 1.277-.446 1.383-1.037.08-.447-.131-1.033-.962-1.34-.48-.176-.923-.369-1.028-.415a.417.417 0 0 1-.17-.407c.029-.201.182-.362.409-.43.609-.184 1.155.256 1.165.264a.293.293 0 0 0 .376-.45c-.032-.026-.791-.653-1.71-.376-.445.134-.76.482-.82.908a1.003 1.003 0 0 0 .488 1.016c.02.01.522.232 1.087.44.423.157.638.407.588.686-.048.27-.347.556-.806.556Z" fill="currentcolor"/><path d="M8.879 10.248c-.411 0-.81-.168-1.064-.449a.293.293 0 1 0-.434.394c.364.401.924.64 1.498.64.683 0 1.277-.446 1.383-1.037.08-.447-.131-1.033-.962-1.34-.48-.176-.923-.369-1.028-.415a.417.417 0 0 1-.17-.407c.029-.201.182-.362.409-.43.609-.184 1.155.256 1.165.264a.293.293 0 0 0 .376-.45c-.032-.026-.791-.653-1.71-.376-.445.134-.76.482-.82.908a1.003 1.003 0 0 0 .488 1.016c.02.01.522.232 1.087.44.423.157.638.407.588.686-.048.27-.347.556-.806.556Z" stroke="currentcolor"/><path d="M3.845 7.55a1.003 1.003 0 0 0 .488 1.015c.021.01.523.233 1.088.441.423.157.638.406.588.686-.048.27-.347.555-.806.555-.412 0-.81-.168-1.064-.448a.293.293 0 1 0-.434.393c.364.402.924.641 1.498.641.682 0 1.277-.446 1.383-1.038.08-.446-.132-1.032-.963-1.339-.478-.176-.922-.37-1.027-.415a.417.417 0 0 1-.17-.408c.028-.2.181-.362.409-.43.608-.184 1.155.256 1.165.265a.293.293 0 0 0 .376-.45c-.032-.027-.792-.653-1.71-.376-.445.134-.76.482-.82.908Z" fill="currentcolor"/><path d="M3.845 7.55a1.003 1.003 0 0 0 .488 1.015c.021.01.523.233 1.088.441.423.157.638.406.588.686-.048.27-.347.555-.806.555-.412 0-.81-.168-1.064-.448a.293.293 0 1 0-.434.393c.364.402.924.641 1.498.641.682 0 1.277-.446 1.383-1.038.08-.446-.132-1.032-.963-1.339-.478-.176-.922-.37-1.027-.415a.417.417 0 0 1-.17-.408c.028-.2.181-.362.409-.43.608-.184 1.155.256 1.165.265a.293.293 0 0 0 .376-.45c-.032-.027-.792-.653-1.71-.376-.445.134-.76.482-.82.908Z" stroke="currentcolor"/></svg><svg fill="none" viewBox="0 0 20 20" id="support" xmlns="http://www.w3.org/2000/svg"><g clip-path="url(#sa)" fill="currentcolor"><path d="M14.065 15.556a.371.371 0 1 0 0 .742.371.371 0 0 0 0-.742Z"/><path d="m14.98 14.356-1.765-.588-.633-1.267c.57-.58.967-1.348 1.1-2.15l.08-.473h.675c.613 0 1.113-.5 1.113-1.113V6.427A5.573 5.573 0 0 0 9.983.86a5.563 5.563 0 0 0-5.566 5.567v2.338c0 .483.31.896.742 1.05v.434c0 .614.5 1.113 1.113 1.113h.326a4.026 4.026 0 0 0 .786 1.14l-.633 1.266-1.763.588c-2.051.684-3.54 2.842-3.54 5.133 0 .205.166.371.371.371h16.329a.371.371 0 0 0 .37-.37c0-2.291-1.488-4.45-3.539-5.134Zm-.172-5.591a.372.372 0 0 1-.371.37h-.567a24.211 24.211 0 0 0 .185-2.337h.753v1.967Zm-9.278.37a.372.372 0 0 1-.37-.37V6.798h.752l.004.117v.004c.027.745.089 1.502.18 2.217H5.53Zm.742 1.485a.372.372 0 0 1-.37-.371v-.371h.304l.079.473c.015.09.033.18.055.27h-.068Zm-.37-4.564h-.729a4.821 4.821 0 0 1 4.81-4.453 4.83 4.83 0 0 1 4.81 4.453h-.728a3.758 3.758 0 0 0-3.75-3.711h-.664a3.759 3.759 0 0 0-3.749 3.71Zm3.75-2.97h.664a3.017 3.017 0 0 1 3.007 3.022c0 .117 0 .218-.003.311v.004l-.464-.067A5.963 5.963 0 0 1 9.504 4.68a.371.371 0 0 0-.263-.109c-.996 0-1.95.454-2.581 1.221a3.017 3.017 0 0 1 2.991-2.705ZM7.108 10.62c-.186-.618-.398-2.436-.445-3.601l.5-.666a2.612 2.612 0 0 1 1.93-1.035 6.712 6.712 0 0 0 3.657 1.773l.546.078a22.84 22.84 0 0 1-.218 2.268c-.034.23-.06.379-.129.792-.196 1.179-1.076 2.245-2.237 2.535-.478.12-.981.12-1.459 0-.725-.181-1.39-.683-1.819-1.402h.757c.153.432.565.742 1.05.742h.741a1.113 1.113 0 1 0 0-2.226h-.742c-.494 0-.9.32-1.05.742H7.11Zm2.101 2.895a3.75 3.75 0 0 0 1.38.031l-.655.694-.725-.725Zm.214 1.264-1.177 1.245a14.133 14.133 0 0 1-.83-1.927l.441-.884 1.566 1.566Zm2.621-1.691.505 1.01a14.146 14.146 0 0 1-.83 1.927l-1.26-1.26 1.585-1.677ZM8.87 10.99c0-.205.166-.37.371-.37h.742a.372.372 0 0 1 0 .741h-.742a.372.372 0 0 1-.37-.37Zm-6.665 8.127c.147-1.838 1.37-3.51 3.017-4.058l1.562-.52c.287.79.641 1.56 1.057 2.29l.002.004a14.89 14.89 0 0 0 1.016 1.551l.456.733h-7.11Zm7.778-.33-.503-.809a14.153 14.153 0 0 1-.854-1.276l1.323-1.399 1.395 1.395c-.257.432-.538.853-.84 1.254-.017.024.008-.014-.52.834Zm.669.33.456-.733c.372-.497.716-1.023 1.023-1.563l.006-.01v-.001c.41-.724.761-1.486 1.045-2.272l1.562.52c1.647.55 2.87 2.22 3.018 4.06h-7.11Z"/><path d="M16.646 17.616a3.71 3.71 0 0 0-1.05-1.275.371.371 0 1 0-.453.588c.351.27.641.623.84 1.02a.371.371 0 1 0 .663-.333Z"/></g><defs><clipPath id="sa"><path fill="currentcolor" transform="translate(.483 .86)" d="M0 0h19v19H0z"/></clipPath></defs></svg><svg fill="none" viewBox="0 0 28 48" id="swiper-nav-prev" xmlns="http://www.w3.org/2000/svg"><path d="m25.172 3.36-21 21 21 21" stroke="currentColor" stroke-width="5" stroke-linecap="round"/></svg><svg fill="none" viewBox="0 0 40 40" id="vk" xmlns="http://www.w3.org/2000/svg"><rect width="40" height="40" rx="5" fill="currentColor"/><path fill-rule="evenodd" clip-rule="evenodd" d="M31.671 14.24c.17-.528 0-.917-.804-.917h-2.66c-.677 0-.989.336-1.158.706 0 0-1.353 3.093-3.27 5.103-.62.581-.901.766-1.24.766-.169 0-.413-.185-.413-.713V14.24c0-.635-.197-.918-.76-.918h-4.18c-.424 0-.678.295-.678.574 0 .601.959.74 1.057 2.432v3.675c0 .806-.155.952-.493.952-.902 0-3.096-3.107-4.397-6.663-.255-.69-.51-.97-1.19-.97h-2.66c-.76 0-.913.336-.913.706 0 .661.902 3.94 4.2 8.275 2.198 2.961 5.295 4.567 8.114 4.567 1.69 0 1.9-.357 1.9-.971v-2.238c0-.713.16-.855.695-.855.395 0 1.071.185 2.65 1.612 1.804 1.692 2.1 2.451 3.116 2.451h2.66c.76 0 1.14-.356.92-1.06-.24-.7-1.1-1.718-2.243-2.924-.62-.688-1.55-1.428-1.832-1.798-.395-.476-.282-.687 0-1.11 0 0 3.241-4.283 3.58-5.737Z" fill="#fff"/></svg><svg fill="none" viewBox="0 0 20 20" id="vpn" xmlns="http://www.w3.org/2000/svg"><g clip-path="url(#va)" fill="currentcolor"><path d="M16.811 5.61h-1.78a.297.297 0 1 0 0 .594h1.78a.594.594 0 0 1 .594.594v1.895a1.173 1.173 0 0 0-1.767-.017l-1.7-.888c.13-.387.199-.791.202-1.2v-.68a.297.297 0 1 0-.594 0v.68a3.287 3.287 0 0 1-1.554 2.782l-2.009 1.236L7.975 9.37a3.287 3.287 0 0 1-1.554-2.781V3.525a6.084 6.084 0 0 0 1.374-.232.297.297 0 0 0-.164-.571 5.45 5.45 0 0 1-1.507.217.297.297 0 0 0-.297.297v.312l-1.22-.639a1.2 1.2 0 1 0-.278.525l1.498.784v1.393H3.155a1.188 1.188 0 0 0-1.187 1.187v1.188a.297.297 0 1 0 .594 0V6.798a.594.594 0 0 1 .593-.594h2.672v.385c.003.408.071.812.202 1.199l-1.7.888a1.201 1.201 0 1 0 .277.526l1.652-.864a3.861 3.861 0 0 0 1.406 1.538l2.164 1.331a.297.297 0 0 0 .311 0l2.164-1.331a3.862 3.862 0 0 0 1.406-1.538l1.651.865a1.181 1.181 0 0 0 2.045 1.044v4.864a.594.594 0 0 1-.594.593H3.155a.594.594 0 0 1-.593-.593v-4.157a.297.297 0 1 0-.594 0v4.157a1.187 1.187 0 0 0 1.187 1.187h3.676l-.594 1.188H4.491a.89.89 0 0 0-.89.89v.594a.297.297 0 0 0 .296.297h8.165a.297.297 0 1 0 0-.594H4.194v-.297a.297.297 0 0 1 .297-.297h10.985a.297.297 0 0 1 .296.297v.297H13.25a.297.297 0 0 0 0 .594h2.82a.297.297 0 0 0 .297-.297v-.594a.89.89 0 0 0-.89-.89h-1.747l-.593-1.188h3.675A1.187 1.187 0 0 0 18 15.111V6.798a1.187 1.187 0 0 0-1.188-1.187ZM3.452 3.237a.594.594 0 1 1 0-1.188.594.594 0 0 1 0 1.188Zm0 6.828a.594.594 0 1 1 0-1.188.594.594 0 0 1 0 1.188Zm13.063 0a.594.594 0 1 1 0-1.188.594.594 0 0 1 0 1.188Zm-3.45 7.422H6.902l.594-1.188h4.977l.594 1.188Z"/><path d="M8.953 2.823a6.06 6.06 0 0 0 1.03-.686 6.048 6.048 0 0 0 3.563 1.388V4.72a.297.297 0 0 0 .594 0v-.502l1.498-.783a1.202 1.202 0 1 0-.277-.526l-1.221.64v-.313a.297.297 0 0 0-.297-.297 5.452 5.452 0 0 1-3.485-1.262l-.184-.154a.297.297 0 0 0-.38 0l-.185.154a5.449 5.449 0 0 1-.934.621.297.297 0 1 0 .278.525Zm7.562-.775a.594.594 0 1 1 0 1.187.594.594 0 0 1 0-1.187Z"/><path d="M9.093 8.58h1.781a.89.89 0 0 0 .89-.892v-1.78a.89.89 0 0 0-.593-.837v-.945a.89.89 0 0 0-.89-.89h-.594a.89.89 0 0 0-.891.89v.945a.89.89 0 0 0-.594.836v1.781a.89.89 0 0 0 .89.891Zm.297-4.454a.297.297 0 0 1 .297-.297h.593a.297.297 0 0 1 .297.297v.89H9.39v-.89Zm-.594 1.781a.297.297 0 0 1 .297-.297h1.781a.297.297 0 0 1 .297.297v1.781a.297.297 0 0 1-.297.297H9.093a.297.297 0 0 1-.297-.297v-1.78Z"/><path d="M9.983 7.392a.297.297 0 0 0 .297-.297v-.594a.297.297 0 0 0-.593 0v.594a.297.297 0 0 0 .296.297ZM7.015 14.814a.297.297 0 0 0 .278-.193l.89-2.375a.297.297 0 0 0-.556-.208l-.612 1.633-.613-1.632a.297.297 0 1 0-.556.207l.89 2.375a.297.297 0 0 0 .279.193ZM9.39 14.517v-.89h.89a.89.89 0 0 0 0-1.782h-.593a.89.89 0 0 0-.891.89v1.782a.297.297 0 0 0 .594 0Zm0-1.781a.297.297 0 0 1 .297-.297h.593a.297.297 0 1 1 0 .594h-.89v-.297ZM12.358 14.517v-1.484l1.247 1.662a.296.296 0 0 0 .535-.178v-2.375a.297.297 0 1 0-.594 0v1.485l-1.247-1.663a.297.297 0 0 0-.534.178v2.375a.297.297 0 0 0 .593 0ZM16.515 13.33a.89.89 0 1 0-1.782 0 .89.89 0 0 0 1.782 0Zm-1.188 0a.297.297 0 1 1 .594 0 .297.297 0 0 1-.594 0ZM5.233 13.33a.89.89 0 1 0-1.78 0 .89.89 0 0 0 1.78 0Zm-1.187 0a.297.297 0 1 1 .593 0 .297.297 0 0 1-.593 0Z"/></g><defs><clipPath id="va"><path fill="currentcolor" transform="translate(.483 .86)" d="M0 0h19v19H0z"/></clipPath></defs></svg></svg>