<svg width="24" height="23" viewBox="0 0 24 23" fill="none" xmlns="http://www.w3.org/2000/svg">
<path d="M4.99414 7.88155V9.31229C4.99414 11.2165 6.51917 12.7602 8.40039 12.7602H11.1936V9.401L8.92031 9.40088C8.67607 9.40087 8.47809 9.20045 8.47809 8.95322V8.24049C8.47809 7.97614 8.67232 7.76898 8.92057 7.76898H18.2727C18.6393 7.76898 18.9365 7.46814 18.9365 7.09704V5.10553C18.9365 4.73443 18.6393 4.43359 18.2727 4.43359H8.40039C6.51917 4.43359 4.99414 5.9773 4.99414 7.88155Z" fill="#DD5813"/>
<path d="M24 8.68595V3.44844C24 1.54691 22.4613 0 20.5696 0H0.663805C0.297195 0 0 0.300834 0 0.671932V21.4896C0 21.8607 0.297195 22.1615 0.663805 22.1615H20.5696C22.4613 22.1615 24 20.6146 24 18.7131V14.5652C24 13.3691 23.3524 12.2423 22.3485 11.6256C23.3524 11.0088 24 9.88195 24 8.68595ZM20.5161 8.95402C20.5161 9.20506 20.3114 9.40168 20.0504 9.40168L12.8063 9.40132V12.7604H14.9865C15.248 12.7604 15.4526 12.9571 15.4526 13.2081V13.9207C15.4526 14.1811 15.2441 14.3922 14.9868 14.3922H5.76039C5.39378 14.3922 5.09659 14.6931 5.09659 15.0642V17.0558C5.09659 17.4269 5.39378 17.7277 5.76039 17.7277H15.5294C17.4111 17.7277 18.9366 16.1836 18.9366 14.2788V12.8495C18.9366 12.8195 18.9361 12.7897 18.9352 12.76H20.0504C20.3114 12.76 20.5161 12.9566 20.5161 13.2076V18.8874C20.5161 19.1477 20.3076 19.3588 20.0504 19.3588H3.48395V2.79074H20.0504C20.3076 2.79074 20.5161 3.00179 20.5161 3.26213V8.95402Z" fill="#DD5813"/>
</svg>
