<svg width="24" height="25" viewBox="0 0 24 25" fill="none" xmlns="http://www.w3.org/2000/svg">
<path d="M7.00009 10.6616H4.5C3.94772 10.6616 3.5 11.1093 3.5 11.6616V16.6616C3.5 17.2139 3.94772 17.6616 4.5 17.6616H7.5M20.9484 11.8522L18.7817 17.7262C18.4692 18.5734 17.6306 19.1063 16.7313 19.0244C14.7655 18.8455 11.2949 18.5236 8.76203 18.2564C7.75541 18.1501 7.00009 17.2984 7.00009 16.2862V11.2139C7.00009 10.6685 7.22283 10.1467 7.61671 9.7695L12.6527 4.94618C12.7223 4.87952 12.7856 4.80654 12.8509 4.7357C13.3887 4.15259 14.2716 3.9903 14.9963 4.35711C15.7656 4.74612 16.1348 5.6179 15.8699 6.42043L14.594 9.09503C14.4357 9.42686 14.6777 9.81031 15.0453 9.81031H19.3126C19.8329 9.81031 20.3238 10.0433 20.644 10.4422C20.9634 10.8412 21.0765 11.3617 20.9484 11.8522Z" stroke="white" stroke-width="2" stroke-linecap="round"/>
</svg>
