<svg width="24" height="25" viewBox="0 0 24 25" fill="none" xmlns="http://www.w3.org/2000/svg">
<path d="M10 9.66162C10 9.93776 9.77614 10.1616 9.5 10.1616C9.22386 10.1616 9 9.93776 9 9.66162C9 9.38548 9.22386 9.16162 9.5 9.16162C9.77614 9.16162 10 9.38548 10 9.66162Z" stroke="white" stroke-width="2" stroke-linecap="round"/>
<path d="M15 14.6616C15 14.9377 14.7761 15.1616 14.5 15.1616C14.2239 15.1616 14 14.9377 14 14.6616C14 14.3855 14.2239 14.1616 14.5 14.1616C14.7761 14.1616 15 14.3855 15 14.6616Z" stroke="white" stroke-width="2" stroke-linecap="round"/>
<path d="M13.0584 4.45631C13.266 4.32269 13.3698 4.25588 13.454 4.21235C14.518 3.66225 15.8236 4.16434 16.2448 5.28559C16.2781 5.3743 16.3104 5.49345 16.375 5.73174C16.4048 5.84176 16.4197 5.89678 16.4364 5.94739C16.6382 6.56055 17.1235 7.03861 17.7396 7.23114C17.7905 7.24703 17.8457 7.26111 17.9562 7.28927L18.1062 7.32749C18.6252 7.4598 18.8847 7.52595 19.0742 7.61994C19.9357 8.04715 20.3712 9.02694 20.1111 9.95267C20.0539 10.1563 19.9291 10.3933 19.6796 10.8672L19.6075 11.0042C19.5544 11.105 19.5278 11.1555 19.5055 11.2039C19.2356 11.7902 19.2653 12.4708 19.5853 13.0315C19.6117 13.0777 19.6425 13.1257 19.7042 13.2215C19.8378 13.4291 19.9046 13.5329 19.9482 13.6171C20.4983 14.6811 19.9962 15.9867 18.8749 16.4079C18.7862 16.4412 18.6671 16.4735 18.4288 16.5381C18.3188 16.5679 18.2637 16.5828 18.2131 16.5995C17.6 16.8013 17.1219 17.2866 16.9294 17.9027C16.9135 17.9536 16.8994 18.0088 16.8713 18.1193L16.833 18.2692C16.7007 18.7883 16.6346 19.0478 16.5406 19.2373C16.1134 20.0988 15.1336 20.5343 14.2079 20.2742C14.0042 20.217 13.7672 20.0922 13.2933 19.8426L13.1564 19.7705C13.0555 19.7174 13.0051 19.6909 12.9567 19.6686C12.3703 19.3987 11.6897 19.4284 11.1291 19.7483C11.0828 19.7748 11.0349 19.8056 10.939 19.8673C10.7314 20.0009 10.6276 20.0677 10.5434 20.1113C9.47945 20.6614 8.17384 20.1593 7.75261 19.038C7.71929 18.9493 7.687 18.8302 7.62241 18.5919C7.59259 18.4818 7.57769 18.4268 7.56103 18.3762C7.35924 17.7631 6.87391 17.285 6.25778 17.0925C6.20693 17.0766 6.1517 17.0625 6.04124 17.0343L5.89128 16.9961C5.37226 16.8638 5.11275 16.7977 4.92322 16.7037C4.06175 16.2765 3.62624 15.2967 3.88632 14.3709C3.94354 14.1673 4.06832 13.9303 4.31787 13.4564L4.38997 13.3194C4.44308 13.2186 4.46963 13.1681 4.49191 13.1197C4.76182 12.5334 4.73212 11.8528 4.41216 11.2921C4.38575 11.2459 4.35491 11.1979 4.29321 11.1021C4.15959 10.8945 4.09278 10.7907 4.04926 10.7065C3.49916 9.64254 4.00125 8.33693 5.1225 7.91571C5.21121 7.88238 5.33036 7.85009 5.56865 7.7855C5.67867 7.75569 5.73368 7.74078 5.7843 7.72412C6.39745 7.52233 6.87552 7.037 7.06805 6.42088C7.08394 6.37002 7.09802 6.31479 7.12618 6.20433L7.1644 6.05437C7.29671 5.53535 7.36286 5.27584 7.45685 5.08631C7.88406 4.22485 8.86384 3.78933 9.78958 4.04941C9.99325 4.10663 10.2302 4.23141 10.7041 4.48096L10.8411 4.55306C10.9419 4.60617 10.9924 4.63272 11.0408 4.655C11.6271 4.92491 12.3077 4.89521 12.8684 4.57526C12.9146 4.54884 12.9626 4.518 13.0584 4.45631Z" stroke="white" stroke-width="2" stroke-linecap="round"/>
<path d="M9.5 14.6616L14.5 9.66162" stroke="white" stroke-width="2" stroke-linecap="round"/>
</svg>
